<svg width="44" height="56" viewBox="0 0 44 56" fill="none" xmlns="http://www.w3.org/2000/svg">
<path fill-rule="evenodd" clip-rule="evenodd" d="M0 21.875C0 9.81313 9.81313 0 21.875 0C33.9369 0 43.75 9.81313 43.75 21.875C43.75 30.4828 38.7772 38.8469 33.2801 45.4196C28.1889 51.5069 23.1651 55.4627 22.9537 55.6281C22.3202 56.1239 21.4301 56.1239 20.7966 55.6281C20.5851 55.4627 15.5613 51.5069 10.4701 45.4196C4.97416 38.8485 0 30.484 0 21.875ZM16.5161 11.375C18.4783 11.375 20.3558 12.0194 21.8753 13.1831C27.5499 8.8377 35.9747 12.7954 35.9748 19.9858C35.9748 29.2884 23.0843 34.647 22.5356 34.8706C22.1123 35.0431 21.6382 35.043 21.2151 34.8706C20.6663 34.647 7.77588 29.2884 7.77588 19.9858C7.77588 15.2378 11.6968 11.375 16.5161 11.375Z" fill="#4D6D3D"/>
</svg>
