<svg width="59" height="60" viewBox="0 0 59 60" fill="none" xmlns="http://www.w3.org/2000/svg">
<path d="M58.9319 16.6975C58.4775 14.9887 56.0933 14.5069 53.3327 13.9491L53.0172 13.8852C52.8051 13.8422 52.7706 13.8041 52.5461 13.5559C52.1712 13.1414 51.6045 12.515 50.1937 12.1848C49.876 12.1105 49.8465 12.0715 49.6548 11.8186C49.1204 11.1137 48.466 10.4641 46.355 10.2613C45.2728 10.1573 45.2186 9.92401 45.0735 9.3002C44.9528 8.7808 44.6321 7.40122 42.9788 7.40122C41.7936 7.40122 41.2937 7.25122 41.0831 7.12547C40.9225 7.02949 40.8412 6.88769 40.6318 6.474C40.3147 5.84797 39.8804 4.99047 38.6986 4.15642C37.6735 3.433 37.0882 2.50625 36.4687 1.52512C36.257 1.19018 36.0383 0.843765 35.7998 0.502503C35.5229 0.106278 35.0305 -0.0800571 34.5596 0.0323297C31.3544 0.798646 30.3491 1.14108 29.8633 1.93412C29.4977 2.53097 29.6388 3.10662 29.7232 3.45046C29.8181 3.83754 29.9163 4.23787 29.1852 5.26072C28.9011 5.65823 28.9086 6.07602 28.9123 6.27689C28.9126 6.29365 28.9131 6.31368 28.9131 6.33103C28.8387 6.42232 28.4922 6.76358 27.1744 7.26364C26.6759 7.45279 26.1374 7.47611 25.6167 7.49873C24.5421 7.54525 22.7771 7.6219 22.4232 9.92541C22.176 10.0299 21.6838 10.138 21.1361 10.0263C20.4993 9.89659 20.0109 9.51325 19.6844 8.88698C18.7316 7.05879 16.2994 6.2831 14.8431 6.83589C13.7506 7.2504 13.2449 8.30313 13.5549 9.51782C13.6318 9.81853 13.7298 10.1592 13.8335 10.5198C14.037 11.2262 14.4853 12.7841 14.4712 13.4459C14.4454 13.461 14.4203 13.477 14.3959 13.494C14.2838 13.3966 14.1526 13.32 14.0077 13.2699C13.5337 13.1067 13.0985 13.2371 12.6777 13.3632C11.7421 13.6439 11.2265 13.7985 10.7339 12.381C10.5984 11.9908 10.2665 11.7004 9.86049 11.6168C7.94713 11.2224 6.76322 11.314 6.0279 11.9537C5.84237 11.8386 5.58906 11.6744 5.24364 11.4402C4.20361 10.7353 2.21661 11.166 1.18199 11.7477C0.103255 12.3544 -0.0201607 13.1308 0.00231052 13.5397C0.0334879 14.1069 0.337262 14.585 0.907514 14.9666C0.470324 15.5167 -0.0848686 16.3038 0.132785 17.2877C0.299613 18.0421 0.861866 18.6466 1.85154 19.1359C2.61862 19.5151 3.06381 19.571 3.52618 19.6013C3.82101 19.6207 4.09961 19.639 5.08081 20.1947C7.26935 21.4341 9.61342 23.2965 9.91672 24.6632C9.98543 24.9729 9.93637 25.2147 9.7526 25.4717C9.56565 25.7333 9.30965 26.0915 9.85719 27.6532C10.1957 28.6185 10.9804 30.2803 12.4869 30.8079C12.5952 31.0932 12.6474 31.7895 12.6799 32.2229C12.7495 33.1529 12.8212 34.1087 13.2858 34.8064C13.2366 34.916 13.1778 35.0391 13.128 35.143C12.9672 35.4793 12.767 35.8979 12.616 36.3569C12.4136 36.9721 12.7502 37.634 13.3678 37.8354C13.9853 38.0369 14.6498 37.7017 14.852 37.0866C14.9562 36.7702 15.1068 36.4553 15.2523 36.1508C15.6056 35.4121 16.1368 34.301 15.2377 33.4928C15.1172 33.2614 15.0605 32.5054 15.0263 32.0482C14.931 30.7772 14.8006 29.0367 13.2979 28.6062C12.6702 28.4263 12.1057 27.1076 11.9302 26.407C12.2908 25.715 12.3893 24.9462 12.2142 24.1572C11.6143 21.4537 7.83901 19.0604 6.24379 18.157C4.90222 17.3971 4.28926 17.3022 3.68066 17.2623C3.43853 17.2465 3.30535 17.2377 2.89746 17.0361C2.68533 16.9312 2.55897 16.8452 2.48686 16.7872C2.57356 16.6423 2.74051 16.4353 2.85051 16.2988C3.24017 15.8153 3.77383 15.1531 3.5643 14.3178C3.50465 14.0801 3.36947 13.7831 3.06993 13.5189C3.42277 13.4324 3.78878 13.3863 3.9889 13.4245C5.3087 14.3168 5.92778 14.6623 6.6331 14.495C7.20029 14.3604 7.46371 13.94 7.57454 13.7439C7.70736 13.7187 8.04808 13.6883 8.77634 13.8009C10.064 16.5144 12.4004 15.8916 13.2902 15.6269C13.7501 15.8503 14.331 15.905 14.8623 15.8298C15.2863 15.7695 15.5891 15.6212 15.801 15.4342C16.0702 15.2945 16.2986 15.0864 16.4679 14.8219C17.1415 13.7693 16.7385 12.1069 16.0955 9.87338C16.003 9.55251 15.9155 9.24816 15.8489 8.9921C16.3047 8.97124 17.2466 9.29621 17.5961 9.96667C18.7619 12.2034 20.9868 12.6356 22.5377 12.3256C23.8136 12.0707 24.6525 11.3608 24.7266 10.4728C24.7576 10.1019 24.827 9.96737 24.8456 9.93737C24.9721 9.87244 25.42 9.85311 25.719 9.8401C26.3602 9.81232 27.1581 9.77775 28.012 9.45372C30.2626 8.59974 31.2197 7.70264 31.2637 6.38564C32.194 4.98883 32.2321 3.99528 32.065 3.14658C32.5855 2.94712 33.557 2.69211 34.3078 2.50578C34.3637 2.59355 34.4198 2.6825 34.477 2.77297C35.1586 3.85231 35.9313 5.07555 37.3384 6.06864C38.043 6.56588 38.2691 7.01238 38.5309 7.52931C39.1721 8.79545 39.8576 9.70052 42.7612 9.74318C42.7683 9.7726 42.775 9.80178 42.7812 9.82861C42.9698 10.6399 43.3622 12.3283 46.1291 12.5941C47.3858 12.7148 47.5584 12.9425 47.777 13.2308C48.069 13.616 48.5102 14.1981 49.6554 14.4662C50.3493 14.6287 50.5279 14.826 50.7981 15.1247C51.1263 15.4876 51.5757 15.9845 52.5473 16.1818L52.8649 16.246C54.0639 16.4883 56.0079 16.8811 56.5828 17.2856C56.5038 17.4062 56.3369 17.6141 55.9926 17.9139C54.5813 19.1422 54.3589 21.3827 54.1625 23.3593C54.081 24.181 53.96 25.3982 53.7478 25.777C53.0889 25.952 52.5903 26.3987 52.1073 26.8317C51.6098 27.2773 51.1402 27.6982 50.5862 27.7588C48.9669 27.9357 47.7948 29.1543 47.6693 30.7913C47.5528 32.3098 48.3842 33.6565 49.6463 33.9933C50.5763 34.2415 50.8765 34.4124 50.9657 34.4781C50.9779 34.5536 50.987 34.6935 50.9937 34.8008C51.0178 35.1759 51.0518 35.7077 51.2707 36.3708C51.2565 36.3814 51.2429 36.3916 51.2301 36.4011C50.8363 36.6963 50.1774 37.1902 50.1954 38.0349C50.2034 38.4141 50.3612 38.9679 51.0672 39.4519C51.3025 39.6132 51.4368 39.7508 51.5084 39.8469C50.8581 39.864 49.9161 40.0178 49.51 40.8522C48.9802 41.9403 49.836 42.9377 50.6637 43.9023C50.8128 44.076 51.0195 44.3171 51.1822 44.527C50.1614 45.4517 50.2576 46.475 50.3633 46.9144C50.5219 47.573 50.9592 48.2072 51.6633 48.7998C52.2583 49.3005 52.7363 49.5701 53.0831 49.6005C53.2606 49.6164 53.4239 49.6292 53.5743 49.6398C53.5533 49.7498 53.5348 49.8666 53.5197 49.99C53.3985 50.971 52.6942 51.2584 51.2278 51.6406C50.2057 51.907 48.9338 52.2385 48.6763 53.4964C48.555 54.0892 47.5491 54.6449 46.9091 54.6114C46.4093 54.5852 45.9891 54.2444 45.3446 53.6906C44.4852 52.952 43.3087 51.9401 41.4848 52.19C40.2467 52.3596 39.7174 52.2775 39.512 52.2137C39.3861 52.1744 39.3716 52.1564 39.2336 51.9841C38.4458 51.0004 37.5297 50.8146 35.732 51.2753C32.2483 52.1675 30.5689 54.0981 30.6407 57.1528C30.3289 57.1721 30.0219 57.2628 29.7467 57.458C29.3764 57.7207 29.3764 57.7206 28.9434 57.468C28.5399 57.2323 27.9296 56.8765 27.1133 57.042C26.8733 57.0907 26.7263 57.0953 26.6462 57.0913C26.6142 56.989 26.5824 56.827 26.5595 56.7103C26.4642 56.2247 26.32 55.4909 25.6452 55.0596C25.2025 54.7767 24.6599 54.7096 24.0321 54.8606C23.3672 55.0204 23.0715 55.0011 22.9763 54.9857C22.9542 54.9523 22.9255 54.9047 22.9025 54.8668C22.65 54.4484 22.0587 53.4687 20.35 53.8158C18.0011 54.2926 17.442 53.9542 17.072 53.7302C16.806 53.5692 16.4041 53.3258 15.8302 53.3258C14.8865 53.3258 14.6557 53.1553 14.4325 52.9905C14.2504 52.856 14.0011 52.6719 13.6325 52.5738C12.7855 52.3486 12.1148 52.0955 11.6388 51.8218C11.634 51.819 11.6294 51.8163 11.625 51.8137C11.6261 51.7782 11.6277 51.7394 11.6291 51.7061C11.6689 50.7824 11.4832 49.83 10.0087 49.0477C10.2486 48.524 10.7256 47.7093 11.0711 47.1191C11.3984 46.56 11.2088 45.8424 10.6475 45.5164C10.0861 45.1905 9.36577 45.3793 9.03846 45.9384C7.92549 47.8396 7.25359 48.9873 7.59877 49.9942C7.74584 50.4233 8.06326 50.755 8.49245 50.9282C9.0747 51.1631 9.24564 51.334 9.28129 51.3761C9.28623 51.424 9.28165 51.5277 9.27835 51.6058C9.25706 52.1014 9.2127 53.1328 10.4624 53.8515C11.1122 54.2253 11.9293 54.5424 12.9588 54.8204C12.9807 54.836 13.0085 54.8566 13.0312 54.8732C13.5432 55.2514 14.2169 55.6543 15.7428 55.6692C15.7751 55.6878 15.8164 55.7128 15.8498 55.7331C16.7187 56.259 17.8183 56.7217 20.8199 56.1123C20.8499 56.1062 20.8765 56.1014 20.9001 56.0976C21.5881 57.22 22.5759 57.5533 24.2602 57.2108C24.3624 57.7282 24.5448 58.5485 25.3035 59.0526C25.8685 59.4281 26.5898 59.5266 27.5069 59.3533C27.5709 59.3832 27.674 59.4435 27.7535 59.4899C28.0854 59.6836 28.627 60 29.3424 60C29.7908 60 30.3076 59.8755 30.8833 59.5188C31.0141 59.5622 31.1846 59.6455 31.2505 59.6978C31.6308 60.0343 32.1849 60.0895 32.6246 59.8344C33.064 59.5793 33.2891 59.0717 33.1826 58.5762C32.546 55.6176 33.3665 54.3012 36.3179 53.5453C36.9378 53.3865 37.2281 53.3738 37.34 53.379C37.3578 53.4007 37.3774 53.4251 37.394 53.4458C38.1574 54.3992 39.1238 54.8796 41.8052 54.5122C42.5416 54.4118 42.9978 54.7697 43.8073 55.4654C44.5419 56.0967 45.456 56.8824 46.785 56.9522C48.4013 57.0379 50.4362 55.9255 50.9303 54.1767C51.1344 54.0877 51.5394 53.9822 51.8233 53.9081C53.208 53.5472 55.5255 52.9432 55.8549 50.2761C55.9148 49.7917 56.044 49.5515 56.1383 49.3762C56.2503 49.168 56.548 48.6149 56.198 48.0092C55.8388 47.3878 55.2257 47.3671 54.6848 47.3488C54.4298 47.3403 54.0625 47.3277 53.5485 47.2874C53.1625 47.034 52.7055 46.599 52.6538 46.3815C52.6788 46.343 52.7649 46.2334 53.0089 46.0814C53.4123 45.83 53.6727 45.4422 53.7424 44.9895C53.8869 44.0514 53.1901 43.2393 52.4525 42.3795C52.3967 42.3145 52.3328 42.2402 52.2663 42.1616C52.9395 42.0184 53.5679 41.4449 53.8165 40.7002C53.9402 40.33 54.1974 39.147 52.9919 37.9961C53.4573 37.5848 54.0257 36.8764 53.6103 35.9123C53.39 35.4015 53.3667 35.0371 53.342 34.6513C53.31 34.1519 53.2661 33.4678 52.6832 32.8697C52.2223 32.3968 51.5189 32.0664 50.2551 31.7292C50.1703 31.7065 49.9814 31.4124 50.0153 30.9698C50.0432 30.606 50.2094 30.1579 50.8425 30.0886C52.1502 29.9457 53.0349 29.153 53.6808 28.5741C53.8991 28.3785 54.229 28.083 54.3491 28.0428C56.0968 27.6905 56.3039 25.606 56.5041 23.59C56.6498 22.1226 56.8312 20.2964 57.5408 19.6787C57.9796 19.2971 59.3144 18.1353 58.9319 16.6975Z" fill="#4D6D3D"/>
<path d="M34.3741 30.2125C36.3344 30.2125 38.9618 26.8373 39.4687 26.1608C40.6418 24.5948 42.6096 21.5058 42.6096 18.4136C42.6096 16.2473 41.7082 14.1103 40.1363 12.5506C38.5783 11.0045 36.5424 10.1542 34.4092 10.1542C34.3886 10.1542 34.3685 10.1542 34.3478 10.1542C32.2061 10.1542 30.1698 11.0046 28.6119 12.5506C27.0401 14.1103 26.1386 16.2473 26.1386 18.4136C26.1386 21.5059 28.1066 24.5949 29.2796 26.1608C29.7862 26.8373 32.4136 30.2125 34.3741 30.2125ZM30.2725 14.2111C31.3863 13.1059 32.833 12.498 34.357 12.498H34.3786C35.898 12.4877 37.3566 13.1006 38.4757 14.211C39.6075 15.334 40.2567 16.8659 40.2567 18.4135C40.2567 20.1116 39.3389 22.3475 37.7389 24.5478C36.254 26.5896 34.8502 27.6835 34.3742 27.8552C33.8982 27.6835 32.4944 26.5896 31.0095 24.5478C29.4093 22.3475 28.4916 20.1116 28.4916 18.4135C28.4915 16.866 29.1406 15.3342 30.2725 14.2111Z" fill="#4D6D3D"/>
<path d="M34.3741 21.8736C36.3202 21.8736 37.9036 20.2964 37.9036 18.3578C37.9036 16.4192 36.3202 14.8421 34.3741 14.8421C32.4279 14.8421 30.8445 16.4192 30.8445 18.3578C30.8445 20.2964 32.4279 21.8736 34.3741 21.8736ZM34.3741 17.1858C35.0228 17.1858 35.5506 17.7115 35.5506 18.3577C35.5506 19.0039 35.0228 19.5296 34.3741 19.5296C33.7253 19.5296 33.1976 19.0039 33.1976 18.3577C33.1976 17.7115 33.7255 17.1858 34.3741 17.1858Z" fill="#4D6D3D"/>
<path d="M12.5017 43.0234C13.1515 43.0234 13.6782 42.4988 13.6782 41.8515C13.6782 41.2043 13.1515 40.6797 12.5017 40.6797H12.5009C11.8511 40.6797 11.3249 41.2043 11.3249 41.8515C11.3249 42.4988 11.852 43.0234 12.5017 43.0234Z" fill="#4D6D3D"/>
</svg>
