<svg width="219" height="213" viewBox="0 0 219 213" fill="none" xmlns="http://www.w3.org/2000/svg">
<path d="M16.7074 5.52552C16.4074 4.72552 15.7074 4.42552 15.0074 4.42552C14.3074 2.92552 12.3074 2.62552 11.2074 3.82552C11.0074 1.42552 7.20737 0.725525 6.70737 3.32552C5.70737 9.02552 4.60737 14.7255 3.60737 20.4255C3.20737 22.8255 6.20737 24.1255 7.50737 22.7255C8.40737 22.8255 9.30737 22.3255 9.60737 21.2255C10.0074 21.9255 10.8074 22.2255 11.7074 22.2255C12.4074 23.7255 14.7074 24.4255 15.8074 22.5255C18.9074 17.1255 19.1074 11.2255 16.7074 5.52552Z" fill="#4D6D3D"/>
<path d="M47.6074 2.42552C46.6074 0.525516 44.3074 1.22552 43.6074 2.72552C43.1074 2.12552 42.4074 1.52552 41.6074 1.22552C38.4074 -0.0744814 34.6074 4.32552 37.6074 6.82552C38.7074 7.72552 39.9074 7.42552 40.8074 6.72552C41.2074 7.32552 41.5074 8.02553 41.9074 8.62553C42.8074 10.1255 43.6074 11.6255 44.5074 13.1255C45.4074 14.7255 47.5074 14.5255 48.5074 13.1255C50.8074 9.92553 49.3074 5.72552 47.6074 2.42552Z" fill="#4D6D3D"/>
<path d="M91.1074 10.3255C90.4074 10.6255 89.8074 10.8255 89.1074 11.1255C90.0074 9.62553 90.8074 8.12553 91.6074 6.62553C92.8074 4.52553 90.5074 2.52552 88.5074 3.52552C85.1074 5.12552 83.3074 9.02552 81.2074 12.0255C78.8074 15.6255 76.4074 19.2255 74.0074 22.7255C73.0074 23.4255 72.6074 24.1255 72.6074 25.4255C72.6074 27.7255 75.5074 28.4255 76.8074 26.7255C77.7074 27.1255 79.0074 27.0255 79.7074 25.9255C80.2074 25.1255 80.7074 24.3255 81.2074 23.6255C83.0074 21.0255 85.2074 18.8255 87.7074 17.0255C87.5074 17.8255 87.2074 18.5255 87.0074 19.3255C86.1074 22.1255 90.6074 23.3255 91.4074 20.5255C92.2074 18.0255 92.9074 15.5255 93.7074 13.0255C94.4074 11.6255 92.7074 9.72552 91.1074 10.3255Z" fill="#4D6D3D"/>
<path d="M179.907 9.52552C179.707 8.12552 179.507 6.62552 179.207 5.22552C178.807 2.82552 175.407 3.22552 174.807 5.22552C174.007 7.62552 173.607 10.1255 173.407 12.6255C173.207 10.2255 173.107 7.72552 173.107 5.32552C173.107 2.42552 168.507 2.32552 168.507 5.32552C168.507 14.1255 169.507 22.7255 171.507 31.3255C172.007 33.6255 175.307 33.4255 175.907 31.3255C176.307 29.8255 176.607 28.3255 176.807 26.8255C177.907 28.3255 180.907 27.8255 181.007 25.4255L181.607 11.7255C181.807 10.4255 180.907 9.72552 179.907 9.52552Z" fill="#4D6D3D"/>
<path d="M215.207 7.62553C213.107 8.52553 211.407 9.92553 209.907 11.6255C206.107 14.5255 202.307 17.4255 198.407 20.3255C197.407 21.1255 196.707 22.9255 197.907 23.9255C199.507 25.2255 201.007 25.2255 202.507 23.9255C203.007 23.4255 203.307 22.9255 203.207 22.3255C203.707 21.9255 204.207 21.5255 204.707 21.2255C204.707 22.7255 205.807 23.9255 207.507 23.5255C208.107 23.4255 208.707 23.2255 209.307 23.1255C211.207 22.6255 211.307 20.5255 210.307 19.3255C211.107 17.7255 212.007 16.1255 213.107 14.8255C214.507 13.7255 215.907 12.6255 217.407 11.6255C219.807 9.82553 217.907 6.42553 215.207 7.62553Z" fill="#4D6D3D"/>
<path d="M198.807 208.126C202.207 204.226 204.707 199.926 206.907 195.226C208.007 193.026 208.907 190.726 210.007 188.426C210.807 186.726 211.607 184.126 212.907 182.426C214.007 182.626 215.107 182.225 215.407 180.826L215.707 179.426C216.107 177.526 214.107 175.826 212.307 176.826C208.107 179.126 206.607 184.826 204.807 188.926C202.307 194.626 199.707 200.226 195.607 204.926C193.707 207.126 196.907 210.326 198.807 208.126Z" fill="#4D6D3D"/>
<path d="M188.207 211.726C198.507 200.326 206.307 186.026 212.207 171.926C213.307 169.226 209.407 166.926 208.207 169.626C202.407 183.326 194.907 197.426 184.907 208.526C183.007 210.626 186.207 213.926 188.207 211.726Z" fill="#4D6D3D"/>
<path d="M156.507 175.026C154.807 174.926 153.207 177.226 154.607 179.026C156.007 180.826 162.807 189.926 165.007 183.626C165.707 181.526 163.707 178.426 162.707 176.726C161.507 174.626 160.107 172.626 159.507 170.326C162.507 172.525 165.407 177.225 166.907 179.326C169.407 182.725 171.707 186.225 173.807 189.826C174.907 191.725 177.307 190.926 177.907 189.426C179.007 190.526 180.107 191.626 181.407 192.626C183.707 194.426 186.007 190.426 183.707 188.626C174.607 181.626 171.807 169.226 164.007 161.126C162.007 159.026 158.707 162.225 160.807 164.326C162.307 165.926 163.607 167.626 164.807 169.326C162.707 166.926 160.307 164.826 157.007 164.726C155.707 164.626 154.807 165.826 154.707 167.026C154.407 169.626 155.007 171.926 156.207 174.326C156.207 174.525 156.407 174.826 156.507 175.026Z" fill="#4D6D3D"/>
<path d="M118.107 200.226C121.107 198.326 123.707 196.026 126.007 193.426C124.607 195.626 122.807 197.525 120.807 199.326C118.507 201.225 121.807 204.426 124.007 202.526C129.607 197.826 133.307 191.326 134.507 184.026C134.807 182.426 133.607 181.426 132.407 181.226C132.507 179.326 131.807 177.726 129.507 177.126C126.707 176.326 125.407 180.726 128.307 181.526C128.107 181.426 123.707 189.025 123.107 189.826C121.007 192.326 118.507 194.426 115.807 196.226C113.307 197.826 115.607 201.826 118.107 200.226Z" fill="#4D6D3D"/>
<path d="M199.807 145.926C199.807 146.426 199.807 146.926 199.707 147.326C199.707 147.326 199.707 147.326 199.707 147.426C199.707 147.626 199.707 147.826 199.607 148.026C199.307 150.626 203.607 151.126 204.107 148.626C205.707 140.526 207.007 132.425 208.107 124.325C208.507 121.425 203.907 121.425 203.507 124.325C203.107 127.325 202.707 130.326 202.207 133.226C202.507 128.526 202.207 123.826 201.307 119.126C200.807 116.226 196.407 117.425 196.907 120.325C198.307 128.125 198.007 135.826 196.007 143.426C195.507 145.826 198.307 147.126 199.807 145.926Z" fill="#4D6D3D"/>
<path d="M143.207 137.226C144.207 139.926 148.707 138.726 147.607 136.026C147.407 135.526 147.307 135.026 147.207 134.526C152.107 138.026 155.507 143.426 161.107 146.026C163.007 146.926 165.607 145.026 164.207 142.926C163.907 142.526 163.707 142.126 163.407 141.726C164.807 141.426 166.007 139.926 164.907 138.426C160.207 131.826 155.007 125.126 146.907 122.726C144.907 122.126 143.407 124.426 144.307 126.126C144.707 126.926 145.207 127.726 145.707 128.526C144.507 128.226 143.207 128.726 142.907 130.026C142.207 132.526 142.307 134.826 143.207 137.226Z" fill="#4D6D3D"/>
<path d="M107.507 153.026C108.307 152.626 109.107 152.225 109.807 151.826C109.707 152.326 109.707 152.726 109.707 153.226C109.407 154.226 109.807 155.225 110.607 155.826C111.407 156.826 112.707 157.326 114.707 156.826C118.507 155.926 121.907 152.726 122.407 148.926C126.107 145.726 129.407 142.226 132.507 138.426C134.307 136.126 131.107 132.826 129.307 135.226C128.507 136.326 127.607 137.326 126.707 138.326C127.207 136.525 125.307 134.326 123.407 135.626C121.007 137.326 118.707 139.326 116.707 141.426C115.007 141.326 113.307 141.826 111.907 143.126C111.007 143.926 111.007 144.926 111.507 145.726C109.507 147.026 107.307 148.225 105.107 149.326C102.607 150.326 104.907 154.226 107.507 153.026Z" fill="#4D6D3D"/>
<path d="M78.1074 171.926C75.7074 172.626 75.0074 175.526 74.9074 177.726C74.9074 180.426 76.0074 182.926 77.8074 184.926C78.8074 186.026 80.2074 185.725 81.0074 184.826C81.3074 185.926 81.6074 187.026 81.9074 188.126C82.5074 190.226 85.8074 190.426 86.3074 188.126C86.3074 187.926 86.4074 187.726 86.4074 187.526C87.6074 187.526 88.8074 186.725 88.8074 185.326C88.9074 183.426 88.5074 182.126 87.6074 180.426C87.5074 180.226 87.4074 180.126 87.3074 179.926C85.6074 174.126 83.8074 168.326 82.1074 162.626C81.3074 159.826 76.8074 161.025 77.7074 163.826C78.5074 166.626 79.4074 169.326 80.2074 172.126C79.7074 171.726 79.0074 171.626 78.1074 171.926Z" fill="#4D6D3D"/>
<path d="M47.6074 184.726C49.5074 188.126 50.8074 191.525 51.7074 195.326C52.3074 197.826 55.6074 197.226 56.1074 195.226C57.4074 198.126 59.0074 200.926 61.0074 203.426C62.9074 205.726 66.1074 202.426 64.2074 200.226C58.1074 192.826 56.8074 182.726 52.4074 174.426C51.5074 172.726 48.7074 173.126 48.2074 174.926C47.6074 177.326 47.6074 179.626 47.9074 181.926C47.3074 182.626 46.9074 183.626 47.6074 184.726Z" fill="#4D6D3D"/>
<path d="M46.9074 142.826C47.3074 144.126 48.5074 144.626 49.7074 144.426C50.2074 144.326 50.7074 144.326 51.1074 144.226C49.7074 145.526 50.6074 147.326 51.9074 147.926C50.6074 148.526 50.6074 150.126 51.4074 151.226C51.0074 151.326 50.6074 151.426 50.3074 151.526C47.5074 152.326 48.7074 156.726 51.5074 155.926C54.2074 155.126 56.9074 154.226 59.5074 153.026C61.3074 152.226 63.5074 151.526 65.0074 150.126C66.6074 149.826 68.2074 149.626 69.8074 149.326C72.7074 148.826 71.5074 144.426 68.6074 144.926C67.9074 145.026 67.3074 145.126 66.6074 145.226C66.4074 144.626 66.1074 144.026 65.7074 143.426C64.1074 141.426 61.5074 141.126 59.1074 141.026C58.9074 141.026 58.7074 141.026 58.5074 141.126C58.5074 139.726 57.1074 138.626 55.6074 138.926C53.2074 139.226 50.8074 139.626 48.3074 139.926C47.2074 140.126 46.6074 141.725 46.9074 142.826ZM61.4074 145.926C61.5074 146.026 61.5074 146.126 61.5074 146.226C59.1074 146.626 56.8074 147.026 54.4074 147.426C55.4074 146.426 56.3074 145.426 57.1074 144.226C57.4074 145.026 58.1074 145.726 59.2074 145.726C59.9074 145.726 60.7074 145.726 61.4074 145.926Z" fill="#4D6D3D"/>
<path d="M90.0074 111.025C90.1074 111.025 90.2074 111.025 90.3074 110.925C89.4074 111.925 88.5074 113.025 87.6074 114.025C86.2074 115.826 87.5074 118.325 89.8074 117.825C92.7074 117.225 95.5074 116.425 98.2074 115.325C100.707 114.325 103.607 112.025 106.307 112.025C109.207 112.025 109.207 107.525 106.307 107.425C103.307 107.425 101.107 108.926 98.5074 110.126C97.8074 110.526 97.0074 110.826 96.3074 111.126C97.3074 110.226 98.2074 109.325 99.3074 108.425C101.207 106.825 99.1074 104.126 97.1074 104.626L88.8074 106.525C85.9074 107.225 87.1074 111.625 90.0074 111.025Z" fill="#4D6D3D"/>
<path d="M177.407 78.9255C179.407 84.1255 181.307 89.3255 183.307 94.5255C184.107 96.5255 186.407 96.5255 187.407 95.1255C188.507 96.3255 190.907 95.8255 191.307 94.1255C191.907 91.6255 191.907 89.2255 191.707 86.7255C192.807 90.1255 193.907 93.5255 194.807 97.0255C195.607 99.8255 200.007 98.6255 199.207 95.8255C197.007 87.9255 194.407 80.2255 191.307 72.6255C190.607 70.8255 187.307 70.1255 186.907 72.6255C186.407 75.6255 186.707 78.5255 186.907 81.5255C186.107 78.8255 185.507 76.0255 185.107 73.1255C184.707 70.8255 181.207 71.1255 180.707 73.1255C180.607 73.4255 180.607 73.7255 180.507 74.0255C180.207 73.3255 180.007 72.7255 179.707 72.0255C179.007 70.0255 176.707 69.9255 175.507 71.5255C174.207 73.2255 173.707 74.9255 173.707 77.1255C173.707 79.3255 176.107 79.8255 177.407 78.9255Z" fill="#4D6D3D"/>
<path d="M136.507 86.5255C136.707 86.0255 136.807 85.4255 137.007 84.9255C137.107 86.4255 137.207 88.0255 137.307 89.5255C137.507 92.4255 142.107 92.4255 141.907 89.5255C141.207 78.8255 140.407 68.1255 139.707 57.4255C139.507 54.5255 134.907 54.5255 135.107 57.4255C135.207 58.8255 135.307 60.2255 135.407 61.7255C134.307 62.0255 133.407 63.0255 133.707 64.5255C135.007 71.6255 134.407 78.5255 132.207 85.3255C131.207 88.1255 135.607 89.3255 136.507 86.5255Z" fill="#4D6D3D"/>
<path d="M70.0074 86.7255C76.0074 86.5255 81.8074 85.7255 87.6074 84.2255C87.4074 85.7255 88.5074 87.3255 90.3074 86.6255C98.0074 83.5255 105.607 80.0255 113.007 76.1255C115.607 74.7255 113.307 70.8255 110.707 72.1255C108.307 73.4255 105.907 74.6255 103.407 75.8255C103.507 75.7255 103.607 75.6255 103.707 75.5255C105.107 74.1255 106.507 72.6255 108.007 71.2255C110.107 69.0255 107.007 66.2255 104.807 68.0255C104.007 68.6255 103.207 69.1255 102.407 69.7255C101.107 69.2255 99.3074 70.0255 99.2074 71.5255C95.4074 73.4255 91.3074 74.5255 87.0074 74.7255C84.1074 74.9255 84.1074 79.5255 87.0074 79.3255C87.6074 79.3255 88.2074 79.2255 88.9074 79.1255C87.8074 79.4255 86.6074 79.8255 85.4074 80.1255C80.4074 81.4255 75.2074 82.0255 70.0074 82.1255C67.1074 82.2255 67.1074 86.8255 70.0074 86.7255Z" fill="#4D6D3D"/>
<path d="M34.7074 104.826C40.7074 109.826 46.2074 115.326 51.2074 121.326C53.1074 123.626 56.3074 120.326 54.4074 118.126C52.8074 116.126 51.1074 114.226 49.4074 112.326C49.5074 112.426 49.6074 112.526 49.7074 112.726C50.0074 113.026 50.3074 113.226 50.6074 113.326C53.0074 115.226 55.2074 117.326 57.5074 119.226C59.7074 121.126 63.0074 117.926 60.7074 116.026C58.0074 113.726 55.3074 111.326 52.4074 109.026C48.5074 104.826 43.8074 98.0255 37.6074 98.4255C36.0074 98.5255 35.2074 100.026 35.4074 101.226C34.0074 101.826 33.2074 103.626 34.7074 104.826Z" fill="#4D6D3D"/>
<path d="M201.807 51.3255C202.107 52.1255 202.807 52.4255 203.507 52.4255C204.207 53.9255 206.207 54.2255 207.307 53.0255C207.507 55.4255 211.307 56.1255 211.807 53.5255C212.807 47.8255 213.907 42.1255 214.907 36.4255C215.307 34.0255 212.307 32.7255 211.007 34.1255C210.107 34.0255 209.207 34.5255 208.907 35.6255C208.507 34.9255 207.707 34.6255 206.807 34.6255C206.107 33.1255 203.807 32.4255 202.707 34.3255C199.707 39.6255 199.507 45.6255 201.807 51.3255Z" fill="#4D6D3D"/>
<path d="M171.007 54.3255C172.007 56.2255 174.307 55.5255 175.007 54.0255C175.507 54.6255 176.207 55.2255 177.007 55.5255C180.207 56.8255 184.007 52.4255 181.007 49.9255C179.907 49.0255 178.707 49.3255 177.807 50.0255C177.407 49.4255 177.107 48.7255 176.707 48.1255C175.807 46.6255 175.007 45.1255 174.107 43.6255C173.207 42.0255 171.107 42.2255 170.107 43.6255C167.707 46.9255 169.307 51.0255 171.007 54.3255Z" fill="#4D6D3D"/>
<path d="M154.007 97.0255C155.407 100.826 156.607 104.626 157.807 108.526C158.507 110.826 161.907 110.626 162.307 108.426C162.407 108.526 162.507 108.526 162.707 108.626C162.807 109.226 162.807 109.826 162.607 110.426C161.707 113.226 166.107 114.426 167.007 111.626C168.007 108.726 167.007 105.426 164.907 103.426C164.007 101.026 163.007 98.6255 161.907 96.3255C161.207 94.9255 159.507 94.9255 158.507 95.8255C157.207 93.0255 153.007 94.2255 154.007 97.0255Z" fill="#4D6D3D"/>
<path d="M129.207 28.9255C129.907 28.6255 130.507 28.4255 131.207 28.1255C130.307 29.6255 129.507 31.1255 128.707 32.6255C127.507 34.7255 129.807 36.7255 131.807 35.7255C135.207 34.1255 137.007 30.2255 139.107 27.2255C141.507 23.6255 143.907 20.0255 146.307 16.5255C147.307 15.8255 147.707 15.1255 147.707 13.8255C147.707 11.5255 144.807 10.8255 143.507 12.5255C142.607 12.1255 141.307 12.2255 140.607 13.3255C140.107 14.1255 139.607 14.9255 139.107 15.6255C137.307 18.2255 135.107 20.4255 132.607 22.2255C132.807 21.4255 133.107 20.7255 133.307 19.9255C134.207 17.1255 129.707 15.9255 128.907 18.7255C128.107 21.2255 127.407 23.7255 126.607 26.2255C125.907 27.6255 127.607 29.5255 129.207 28.9255Z" fill="#4D6D3D"/>
<path d="M83.9074 49.6255C86.9074 48.7255 89.6074 48.7255 92.6074 49.5255C94.2074 50.0255 95.8074 48.4255 95.5074 46.8255C98.9074 46.1255 102.307 46.4255 105.707 48.0255C108.407 49.2255 110.707 45.3255 108.007 44.0255C102.607 41.5255 97.1074 41.1255 91.5074 43.2255C90.9074 43.4255 90.4074 43.9255 90.1074 44.4255C87.7074 44.2255 85.2074 44.4255 82.8074 45.2255C79.8074 46.0255 81.0074 50.4255 83.9074 49.6255Z" fill="#4D6D3D"/>
<path d="M46.5074 63.7255C46.7074 65.1255 46.9074 66.6255 47.2074 68.0255C47.6074 70.4255 51.0074 70.0255 51.6074 68.0255C52.4074 65.6255 52.8074 63.1255 53.0074 60.6255C53.2074 63.0255 53.3074 65.5255 53.3074 67.9255C53.3074 70.8255 57.9074 70.9255 57.9074 67.9255C57.9074 59.1255 56.9074 50.5255 54.9074 41.9255C54.4074 39.6255 51.1074 39.8255 50.5074 41.9255C50.1074 43.4255 49.8074 44.9255 49.6074 46.4255C48.5074 44.9255 45.5074 45.4255 45.4074 47.8255L44.8074 61.5255C44.7074 62.8255 45.5074 63.5255 46.5074 63.7255Z" fill="#4D6D3D"/>
<path d="M211.707 105.025C211.707 105.326 211.707 105.525 211.707 105.825C211.707 106.525 211.907 107.025 212.207 107.425L212.107 109.226C211.907 112.126 216.507 112.126 216.707 109.226L218.607 84.7255C218.807 81.9255 214.907 81.8255 214.107 84.2255C213.007 84.0255 211.707 84.6255 211.507 85.8255C210.607 91.3255 209.707 96.8255 208.807 102.326C208.507 104.126 210.307 105.326 211.707 105.025Z" fill="#4D6D3D"/>
<path d="M9.40736 198.626C10.4074 198.226 11.3074 197.826 12.2074 197.326C11.9074 197.826 11.5074 198.326 11.2074 198.926C9.80737 201.126 13.0074 203.526 14.8074 201.726C19.0074 197.426 23.5074 193.326 28.4074 189.626C30.2074 188.226 29.2074 185.426 27.5074 185.226C28.2074 184.326 28.9074 183.426 29.6074 182.426C31.1074 180.226 27.8074 177.826 26.0074 179.626C23.6074 182.026 21.4074 184.526 19.4074 187.126C16.1074 190.026 12.4074 192.426 8.20737 194.126C5.50737 195.326 6.70737 199.726 9.40736 198.626Z" fill="#4D6D3D"/>
<path d="M6.00737 140.126C6.20737 141.826 6.50737 143.326 7.00737 144.926C6.40737 145.526 6.10737 146.526 6.80737 147.526C8.40737 149.726 9.60736 152.126 10.7074 154.526C10.7074 154.526 10.7074 154.526 10.7074 154.626C10.9074 157.026 11.5074 159.126 12.9074 161.126C14.3074 163.226 17.7074 161.926 17.1074 159.326C16.5074 156.826 15.7074 154.426 14.7074 152.126C15.3074 153.126 15.9074 154.226 16.5074 155.226C16.7074 155.526 16.9074 155.826 17.2074 155.926C18.3074 158.126 19.4074 160.326 20.5074 162.526C21.7074 164.826 25.6074 163.226 24.7074 160.726C24.3074 159.526 23.8074 158.326 23.3074 157.126C24.7074 156.726 25.7074 155.326 24.6074 153.926C22.5074 151.226 20.3074 148.725 17.8074 146.326C16.8074 144.225 15.7074 142.126 14.4074 140.126C13.6074 138.726 12.0074 138.826 11.1074 139.526C10.8074 139.126 10.4074 138.826 10.1074 138.526C8.60737 137.226 5.70737 138.126 6.00737 140.126Z" fill="#4D6D3D"/>
<path d="M11.8074 112.425C14.6074 113.425 16.8074 115.526 18.3074 118.126C19.7074 120.726 23.7074 118.425 22.3074 115.825C22.3074 115.725 22.2074 115.626 22.2074 115.626C23.9074 115.126 24.8074 112.525 22.8074 111.425C21.0074 110.325 19.2074 109.226 17.3074 108.126C16.2074 107.426 15.1074 107.826 14.5074 108.626C14.0074 108.426 13.5074 108.225 13.0074 108.025C10.2074 106.925 9.00737 111.425 11.8074 112.425Z" fill="#4D6D3D"/>
<path d="M2.50737 92.5255C2.90737 94.2255 5.10737 94.7255 6.30737 93.5255C14.0074 86.2255 19.2074 77.0255 21.5074 66.7255C21.9074 64.9255 20.3074 63.7255 18.9074 63.9255C17.9074 63.2255 16.3074 63.2255 15.5074 64.5255C13.7074 67.8255 11.8074 71.2255 10.0074 74.5255C8.90736 75.9255 7.60737 77.3255 6.20737 78.6255C5.20737 79.5255 5.40737 80.7255 6.00737 81.5255C4.00737 85.0255 1.60737 88.5255 2.50737 92.5255Z" fill="#4D6D3D"/>
<path d="M3.40737 49.2255C5.50737 48.3255 7.20737 46.9255 8.70737 45.2255C12.5074 42.3255 16.3074 39.4255 20.2074 36.5255C21.2074 35.7255 21.9074 33.9255 20.7074 32.9255C19.1074 31.6255 17.6074 31.6255 16.1074 32.9255C15.6074 33.4255 15.3074 33.9255 15.4074 34.5255C14.9074 34.9255 14.4074 35.3255 13.9074 35.6255C13.9074 34.1255 12.8074 32.9255 11.1074 33.3255C10.5074 33.4255 9.90737 33.6255 9.30737 33.7255C7.40737 34.2255 7.30737 36.3255 8.30737 37.5255C7.50737 39.1255 6.60737 40.7255 5.50737 42.0255C4.10737 43.1255 2.70737 44.2255 1.20737 45.2255C-1.29263 47.0255 0.607365 50.3255 3.40737 49.2255Z" fill="#4D6D3D"/>
</svg>
