<svg width="112" height="40" viewBox="0 0 112 40" fill="none" xmlns="http://www.w3.org/2000/svg">
<circle cx="23" cy="20" r="20" fill="#BCC6CD"/>
<path d="M47.0388 23.7588C46.4126 30.7966 37.9403 31.1978 36.3564 31.1978H35.6933V9.39131C35.6933 6.76578 36.7615 6.47405 38.3455 6.47405V6H27V6.47405C28.5839 6.47405 29.3575 6.91164 29.3575 9.13605V27.6241C29.3575 30.1038 28.8786 31.1978 27.2947 31.1978V31.6718H47.5177V23.7588H47.0388Z" fill="#333333"/>
<path d="M70.8783 30.5778C69.3312 30.3955 68.9997 30.1403 68.9997 28.3899V14.4965L61.8535 15.2258V15.6634C63.7321 15.8822 63.5848 16.3562 63.5848 18.5806V27.1501C62.9954 28.6452 61.8167 29.338 60.7853 29.338C58.7593 29.338 58.0226 28.3534 58.0226 26.3114V14.4965L50.508 15.2258V15.6634C52.6445 15.9551 52.5708 16.2833 52.5708 18.4712V26.4208C52.5708 30.7966 54.9652 32 57.8752 32C60.5642 32 62.9954 30.1767 63.5848 28.1711V31.2707C63.5848 31.2707 63.6216 32.1094 64.6162 31.9635L70.8783 31.0154V30.5778Z" fill="#333333"/>
<path d="M91.5033 31.2342C90.1772 30.906 89.9931 29.3745 89.9931 27.3689V20.0393C89.9931 15.6634 87.5619 14.4965 84.6518 14.4965C82.4785 14.4965 80.0473 16.1374 79.1633 18.216V14.4965L71.8329 15.9916V16.4656C73.3432 17.122 73.7115 17.5961 73.7115 18.8724V27.4418C73.7115 29.3015 73.6747 30.8331 72.2749 31.2342V31.6718H80.6735V31.2342C79.3475 30.8696 79.1633 29.4474 79.1633 27.4418V19.3464C79.4211 18.216 80.6735 17.122 81.8155 17.122C83.6204 17.122 84.5782 18.2525 84.5782 20.1851V27.3689C84.5782 29.2286 84.5045 30.8331 83.1047 31.2342V31.6718H91.5033V31.2342Z" fill="#333333"/>
<path d="M103.38 22.8836C103.38 22.8836 103.38 28.1346 103.38 28.1711C103.012 29.0463 102.349 29.7756 101.391 29.7756C99.4758 29.7756 99.4758 27.3689 99.4758 27.3689C99.4758 25.582 100.065 23.6129 103.38 22.8836ZM111.595 29.1557C111.374 29.7756 110.527 29.7756 110.527 29.7756C108.758 29.8121 108.758 27.223 108.758 27.223V21.7896C108.758 17.4867 106.769 14.4965 101.944 14.4965C101.944 14.4965 100.065 14.3871 98.4075 15.2623C96.7131 16.1374 96.1605 16.9762 95.7553 17.5231C95.2396 18.1431 95.1659 19.1276 95.5711 19.9663C96.1605 21.0968 97.5971 21.5344 98.739 20.9509C99.8809 20.331 100.323 18.9453 99.7336 17.8149C99.4021 17.2314 98.96 16.8668 98.3707 16.7209C97.5971 16.5021 98.1128 15.9187 98.7022 15.6269C101.244 14.3506 103.38 16.2833 103.38 20.0757V22.3731C96.8972 23.9411 93.8398 24.4881 93.8398 28.2805C93.8398 31.7083 97.5603 32 98.2602 32C100.876 32 102.902 30.6508 103.417 28.9004C103.786 32 107.469 32 107.469 32C109.79 32 111.595 30.7602 112 29.3745L111.595 29.1557Z" fill="#333333"/>
<path d="M11.6729 5.70002L12.3834 5.70114C12.3839 5.41922 12.2126 5.16453 11.949 5.055C11.6853 4.94548 11.3806 5.00248 11.1761 5.19963L11.6729 5.70002Z" fill="#8C979F"/>
<path fill-rule="evenodd" clip-rule="evenodd" d="M9.48044 12.7325L10.0474 13.1544L10.0486 13.1529L10.0514 13.1493L10.0612 13.1363L10.0971 13.0888C10.1277 13.0479 10.1715 12.989 10.2252 12.9155C10.3324 12.7686 10.4798 12.5623 10.6413 12.3232C10.9577 11.8551 11.354 11.2243 11.5962 10.6617C12.0046 9.71313 12.1941 8.44933 12.2871 7.47758C12.3346 6.98088 12.3586 6.53942 12.3708 6.22189C12.3769 6.06289 12.3801 5.93437 12.3817 5.84484C12.3825 5.80007 12.3829 5.765 12.3832 5.74071L12.3834 5.71246L12.3834 5.70464L12.3834 5.70114C12.3834 5.70114 12.3834 5.70114 11.6729 5.70002C11.1761 5.19963 11.1761 5.19963 11.1761 5.19963L11.1736 5.20202L11.1686 5.20686L11.1514 5.22369C11.1368 5.23803 11.1161 5.25856 11.0899 5.28481C11.0377 5.33729 10.9638 5.41277 10.8741 5.50748C10.6952 5.6965 10.4518 5.96429 10.1929 6.28047C9.69099 6.89339 9.06887 7.7616 8.80123 8.62006C8.53458 9.47537 8.54515 10.5628 8.60242 11.3706C8.63198 11.7876 8.67621 12.1562 8.71305 12.4208C8.73151 12.5533 8.74821 12.6605 8.76045 12.7354C8.7616 12.7424 8.76271 12.7491 8.76378 12.7556C8.76841 12.7835 8.77226 12.8061 8.77517 12.8228L8.77941 12.8469L8.78065 12.8538L8.78103 12.8559C8.78103 12.8559 8.78125 12.8571 9.48044 12.7325ZM10.288 10.115C10.2104 10.2951 10.108 10.493 9.99284 10.6952C9.97975 10.0866 10.0197 9.48009 10.1596 9.03111C10.2814 8.64064 10.5308 8.20378 10.8253 7.78234C10.7253 8.61426 10.5578 9.48839 10.288 10.115Z" fill="#8C979F"/>
<path d="M9.48044 12.7325L10.0474 13.1544C9.87732 13.3762 9.59006 13.4779 9.31561 13.4134C9.04116 13.349 8.83122 13.1294 8.78103 12.8559L9.48044 12.7325Z" fill="#8C979F"/>
<path d="M1.4413 8.82559L1.8582 8.25876C1.64916 8.10953 1.37441 8.08375 1.14052 8.19141C0.906644 8.29907 0.750435 8.52323 0.732495 8.77695L1.4413 8.82559Z" fill="#8C979F"/>
<path fill-rule="evenodd" clip-rule="evenodd" d="M7.23587 16.4325L6.55712 16.6395C6.54251 16.6808 6.5288 16.7195 6.51595 16.7559C6.32323 17.3005 6.32293 17.3004 6.32293 17.3004L6.3215 17.2999L6.3185 17.2989L6.3088 17.2955L6.27511 17.2835C6.24649 17.2732 6.20573 17.2583 6.1543 17.239C6.0515 17.2003 5.9057 17.1435 5.72862 17.0693C5.37543 16.9215 4.8929 16.7026 4.37672 16.4183C3.38143 15.8702 2.11278 15.0003 1.53258 13.8188C1.0093 12.7531 0.818496 11.4754 0.74971 10.5095C0.714718 10.0182 0.710209 9.58947 0.714449 9.28266C0.716573 9.12899 0.720902 9.00518 0.724784 8.91859C0.726726 8.87527 0.728559 8.84121 0.729953 8.81731L0.731675 8.78918L0.732213 8.78103L0.732388 8.77848L0.732495 8.77695C0.732495 8.77695 0.732495 8.77695 1.4413 8.82559C1.46736 8.79016 1.49179 8.75695 1.51469 8.72582C1.85821 8.25877 1.8582 8.25876 1.8582 8.25876L1.85941 8.25963L1.86162 8.26121L1.86895 8.26649L1.89496 8.28536C1.9172 8.30159 1.94908 8.32503 1.98947 8.35521C2.07024 8.41555 2.18524 8.50297 2.32556 8.61368C2.60575 8.83475 2.98922 9.15058 3.40363 9.53078C4.21508 10.2752 5.21351 11.3275 5.73919 12.4363C6.1031 13.2039 6.47839 14.2093 6.75837 15.0069C6.89952 15.409 7.01859 15.7644 7.10243 16.0195C7.14437 16.1472 7.17755 16.2498 7.20034 16.3209L7.22652 16.4029L7.23338 16.4246L7.23587 16.4325ZM4.45166 13.0288C4.76822 13.6965 5.10724 14.5927 5.37864 15.3602C5.27783 15.3085 5.17464 15.2539 5.0701 15.1963C4.11209 14.6687 3.18828 13.9758 2.8118 13.2091C2.40641 12.3835 2.23176 11.3171 2.16727 10.4116L2.16036 10.3087C2.24968 10.3871 2.34162 10.4695 2.43519 10.5553C3.21817 11.2737 4.0468 12.1748 4.45166 13.0288Z" fill="#8C979F"/>
<path d="M6.55712 16.6395L6.32293 17.3004C6.5761 17.3873 6.8577 17.3266 7.05059 17.1431C7.24349 16.9597 7.31512 16.6848 7.23587 16.4325L6.55712 16.6395Z" fill="#8C979F"/>
<path d="M16.7887 10.3884L17.4921 10.4873C17.5317 10.214 17.4045 9.94329 17.1674 9.79612C16.9304 9.64895 16.6276 9.65281 16.3945 9.80598L16.7887 10.3884Z" fill="#8C979F"/>
<path fill-rule="evenodd" clip-rule="evenodd" d="M13.1346 22.8906L13.7813 23.1804L13.7826 23.1777L13.7992 23.1416L13.8491 23.0323C13.8922 22.9374 13.9545 22.7998 14.0312 22.628C14.1846 22.2844 14.3962 21.8033 14.6296 21.2524C15.0938 20.1566 15.6532 18.763 16.0064 17.6257C16.434 16.2492 16.8054 14.4573 17.068 13.0281C17.2001 12.3096 17.3059 11.6755 17.3788 11.2209C17.4152 10.9935 17.4434 10.8108 17.4626 10.6846L17.4844 10.5392L17.4901 10.501L17.4921 10.4873L16.7887 10.3884C16.764 10.352 16.7409 10.3178 16.7193 10.2858C16.3945 9.80599 16.3945 9.80598 16.3945 9.80598L16.393 9.80696L16.3902 9.80877L16.381 9.81489L16.3481 9.83693C16.32 9.85592 16.2796 9.88341 16.2284 9.91887C16.1262 9.98978 15.9807 10.0927 15.804 10.2234C15.4513 10.4844 14.971 10.8585 14.4601 11.3116C13.4625 12.1962 12.2534 13.4637 11.7376 14.8332C11.1279 16.452 11.351 18.5749 11.67 20.1846C11.8336 21.0101 12.0313 21.7419 12.188 22.2671C12.2665 22.5302 12.335 22.7425 12.3842 22.8901C12.4089 22.964 12.4287 23.0217 12.4426 23.0616L12.4589 23.1079L12.4635 23.1206L12.4654 23.1259C12.4654 23.1259 12.4655 23.1262 13.1346 22.8906ZM13.3182 20.7132L13.2682 20.8309C13.1981 20.5459 13.1285 20.2384 13.0647 19.9163C12.7504 18.3302 12.6081 16.5462 13.0699 15.3202C13.4587 14.2879 14.4421 13.2112 15.4108 12.3521C15.5456 12.2326 15.6783 12.1189 15.8067 12.0117C15.765 12.2519 15.7192 12.5093 15.6697 12.7787C15.4089 14.1983 15.0494 15.9226 14.6476 17.216C14.3158 18.2843 13.7789 19.6255 13.3182 20.7132Z" fill="#8C979F"/>
<path d="M13.1346 22.8906L13.7813 23.1804C13.6615 23.4399 13.3939 23.6019 13.1048 23.59C12.8157 23.5781 12.5627 23.3943 12.4654 23.1259L13.1346 22.8906Z" fill="#8C979F"/>
<path d="M8.15192 12.3959L8.15233 12.4047L8.15479 12.4484C8.15735 12.4891 8.16196 12.553 8.16992 12.6392C8.18585 12.8114 8.21522 13.0725 8.26855 13.4152C8.37519 14.1005 8.57763 15.1119 8.96 16.3909C9.72449 18.9482 11.2093 22.5789 14.0902 26.8142C16.9661 31.0422 20.1105 34.0153 22.5318 35.9291C23.7422 36.8859 24.7708 37.577 25.493 38.027C25.8541 38.2519 26.1384 38.4165 26.3303 38.5238C26.4263 38.5775 26.4991 38.6168 26.5469 38.6421L26.5995 38.6698L26.6113 38.6758L26.6131 38.6767C26.9622 38.853 27.1006 39.2747 26.9219 39.6188C26.7431 39.9629 26.315 40.0991 25.9657 39.923L26.2894 39.2999C25.9657 39.923 25.9657 39.923 25.9657 39.923L25.9628 39.9215L25.9574 39.9188L25.9391 39.9093C25.9235 39.9013 25.9015 39.8898 25.8731 39.8747C25.8163 39.8446 25.7343 39.8003 25.629 39.7415C25.4184 39.6237 25.1146 39.4477 24.7334 39.2102C23.9712 38.7352 22.8986 38.014 21.6425 37.0211C19.1308 35.0358 15.8804 31.961 12.9097 27.5936C9.94405 23.2337 8.39978 19.4723 7.59684 16.7865C7.1955 15.4439 6.97964 14.371 6.86391 13.6273C6.80605 13.2555 6.77321 12.966 6.75474 12.7662C6.7455 12.6663 6.73985 12.5889 6.73645 12.5348C6.73476 12.5077 6.73362 12.4865 6.73289 12.4713L6.73206 12.4529L6.73183 12.4471L6.73175 12.445C6.73175 12.445 6.7317 12.4435 7.44182 12.42L6.7317 12.4435C6.71849 12.0572 7.02572 11.7334 7.41791 11.7204C7.80968 11.7074 8.13807 12.0101 8.15192 12.3959Z" fill="#8C979F"/>
<path d="M21.1736 17.4209L21.8833 17.3873C21.8705 17.1235 21.708 16.8893 21.4632 16.7817C21.2184 16.674 20.933 16.7113 20.7251 16.878L21.1736 17.4209Z" fill="#8C979F"/>
<path fill-rule="evenodd" clip-rule="evenodd" d="M19.712 31.4859C20.3658 31.76 20.3659 31.7598 20.3659 31.7598L20.3672 31.7566L20.3704 31.7493L20.3815 31.723C20.391 31.7004 20.4047 31.6677 20.4219 31.6257C20.4564 31.5415 20.5053 31.4197 20.5646 31.2656C20.6832 30.9575 20.8436 30.5189 21.013 29.9926C21.3503 28.945 21.7309 27.527 21.8805 26.0875C22.0281 24.6665 22.0267 22.4778 21.991 20.675C21.9731 19.7671 21.9462 18.9459 21.9238 18.3517C21.9126 18.0545 21.9025 17.8139 21.8952 17.6474L21.8865 17.4553L21.8833 17.3873L21.1736 17.4209C20.7251 16.878 20.7251 16.878 20.7251 16.878L20.7231 16.8796L20.72 16.8821L20.7106 16.8898L20.6798 16.9154C20.654 16.937 20.6179 16.9678 20.5728 17.0076C20.4825 17.0872 20.356 17.2027 20.2034 17.3529C19.8985 17.6528 19.4876 18.0924 19.0533 18.66C18.1871 19.7919 17.212 21.4538 16.8207 23.5452C16.4188 25.6942 17.0247 27.7987 17.6889 29.3206C18.0244 30.0891 18.3833 30.7286 18.6588 31.177C18.7969 31.4016 18.9146 31.5793 18.9991 31.7023C19.0413 31.7639 19.0752 31.8119 19.0993 31.8454L19.1277 31.8846L19.136 31.8958L19.1385 31.8993L19.1394 31.9005C19.1394 31.9005 19.14 31.9013 19.712 31.4859ZM19.6585 29.5693C19.622 29.6827 19.586 29.7916 19.5508 29.8958C19.3719 29.5711 19.179 29.1906 18.9944 28.7676C18.3797 27.3592 17.8894 25.5568 18.2183 23.7989C18.5579 21.9833 19.4098 20.5196 20.188 19.5027C20.3038 19.3513 20.4177 19.2103 20.5275 19.08C20.5431 19.5575 20.5586 20.1115 20.5703 20.7023C20.606 22.5105 20.6045 24.6196 20.4668 25.9449C20.331 27.2518 19.9807 28.5686 19.6585 29.5693Z" fill="#8C979F"/>
<path d="M19.712 31.4859L20.3659 31.7598C20.266 31.991 20.0479 32.152 19.7945 32.1812C19.5412 32.2104 19.2908 32.1027 19.1394 31.9005L19.712 31.4859Z" fill="#8C979F"/>
<path fill-rule="evenodd" clip-rule="evenodd" d="M6.11136 20.4568C5.2474 20.2731 4.33825 20.238 3.52534 20.2669C2.70927 20.2959 1.96809 20.3904 1.43217 20.4772C1.16346 20.5206 0.944515 20.5625 0.791353 20.5937C0.71473 20.6094 0.654448 20.6224 0.612505 20.6317L0.563551 20.6428L0.549829 20.646L0.545737 20.6469L0.543898 20.6474C0.543898 20.6474 0.543522 20.6475 0.710543 21.3279L0.543898 20.6474C0.289748 20.7079 0.0895171 20.9012 0.0232303 21.1504C-0.0430566 21.3996 0.0349367 21.6645 0.226275 21.8401L0.25195 21.8636L0.324348 21.9296C0.387257 21.9869 0.47856 22.0698 0.59268 22.1727C0.820848 22.3785 1.1406 22.6647 1.50727 22.9869C2.23715 23.6281 3.16565 24.4228 3.92905 25.0064C5.14182 25.9337 6.74676 26.3477 7.97956 26.5399C8.60719 26.6377 9.16338 26.6817 9.56343 26.7013C9.76385 26.7111 9.9261 26.7149 10.0398 26.7161C10.0966 26.7168 10.1414 26.7168 10.1728 26.7166L10.2097 26.7163L10.2203 26.7162L10.2236 26.7161L10.2252 26.7161C10.2252 26.7161 10.2256 26.7161 10.2113 26.0162L10.2252 26.7161C10.4456 26.7117 10.6518 26.6068 10.7828 26.4321C10.9137 26.2575 10.955 26.0329 10.8945 25.8241L10.2113 26.0162C10.8945 25.8241 10.8945 25.8241 10.8945 25.8241L10.8941 25.8226L10.8934 25.8202L10.8911 25.8126L10.8833 25.7866C10.8767 25.7646 10.867 25.7334 10.8545 25.6939C10.8293 25.6148 10.7923 25.5024 10.7434 25.364C10.646 25.0879 10.5004 24.7059 10.3069 24.2792C9.92747 23.4427 9.33291 22.3641 8.50496 21.5988C7.83575 20.9802 6.97161 20.6396 6.11136 20.4568ZM2.45305 21.942L2.26128 21.773C2.65319 21.7243 3.10244 21.6828 3.57664 21.666C4.31956 21.6395 5.10186 21.6744 5.81162 21.8253C6.52508 21.9769 7.11693 22.2355 7.53263 22.6197C8.15301 23.1932 8.65468 24.0681 9.00944 24.8503C9.07665 24.9985 9.13747 25.1409 9.19185 25.274C8.90132 25.2503 8.56425 25.2136 8.20164 25.1571C7.04623 24.977 5.72788 24.6096 4.80029 23.9004C4.07717 23.3475 3.17861 22.5794 2.45305 21.942Z" fill="#8C979F"/>
<path fill-rule="evenodd" clip-rule="evenodd" d="M13.6207 30.9755C12.9412 30.3473 12.0198 30.0107 11.1014 29.8311C10.1738 29.6497 9.1779 29.6148 8.2784 29.6435C7.37526 29.6722 6.54629 29.7659 5.94452 29.8518C5.64293 29.8949 5.39666 29.9363 5.2246 29.9672C5.13853 29.9826 5.07092 29.9955 5.02411 30.0046L4.96976 30.0154L4.95482 30.0184L4.9505 30.0193L4.94866 30.0197C4.94866 30.0197 4.94832 30.0197 5.09549 30.7046L4.94866 30.0197C4.69758 30.072 4.49434 30.2538 4.41753 30.4951C4.34073 30.7363 4.40195 30.9996 4.57769 31.1839L5.09549 30.7046C5.04695 30.7495 5.00296 30.7902 4.96309 30.8271C4.5777 31.1839 4.57769 31.1839 4.57769 31.1839L4.58068 31.187L4.58772 31.1943L4.61363 31.2212C4.63607 31.2443 4.66872 31.2778 4.71077 31.3204C4.79485 31.4056 4.91664 31.5275 5.06972 31.6763C5.37554 31.9736 5.80799 32.3804 6.31536 32.819C7.31335 33.6816 8.6632 34.7221 9.93256 35.2554C11.3823 35.8645 13.3206 36.0616 14.8303 36.1185C15.598 36.1474 16.2799 36.1407 16.7701 36.1268C17.0155 36.1199 17.2136 36.1111 17.3512 36.104C17.4201 36.1004 17.4738 36.0973 17.5109 36.095L17.5538 36.0922L17.5655 36.0914L17.5688 36.0912C17.5688 36.0912 17.5704 36.0911 17.5195 35.3929L17.5704 36.0911C17.8555 36.0709 18.1005 35.8844 18.1924 35.6178C18.2842 35.3512 18.2049 35.0563 17.9912 34.8694L17.5109 34.4482C17.2134 34.1869 16.8017 33.8246 16.3448 33.4206C15.4295 32.6111 14.3385 31.639 13.6207 30.9755ZM7.25256 31.7666C7.01396 31.5604 6.79253 31.3613 6.59441 31.1784C7.09339 31.1178 7.69121 31.0629 8.32431 31.0427C9.16334 31.016 10.0416 31.0512 10.8247 31.2043C11.6171 31.3592 12.243 31.6217 12.6484 31.9964C13.3789 32.6717 14.4804 33.6531 15.3955 34.4624L15.7074 34.7379C15.4499 34.736 15.1736 34.7304 14.8847 34.7195C13.4018 34.6636 11.6859 34.47 10.49 33.9676C9.44088 33.5269 8.23284 32.6139 7.25256 31.7666Z" fill="#8C979F"/>
</svg>
