<svg width="91" height="80" viewBox="0 0 91 80" fill="none" xmlns="http://www.w3.org/2000/svg">
<path d="M46.9569 80C46.9569 79.0567 46.5533 77.9786 46.9569 77.3048C49.1095 71.7795 51.262 66.2543 53.6836 60.8638C56.3743 54.53 59.1995 48.3309 62.0247 42.1318C62.2938 41.5928 62.4283 41.0537 62.6974 40.5147C62.4283 40.3799 62.2938 40.2452 62.1593 40.2452C59.7377 41.458 57.4506 42.6709 55.029 44.0185C53.8182 44.6923 52.4728 45.2314 51.1275 45.9052C49.6476 46.579 48.3023 47.3876 46.8224 48.0614C44.8044 49.1395 42.9209 50.4871 40.7684 51.2957C39.2885 51.8347 37.405 51.7 35.7906 51.4304C34.3107 51.1609 33.5035 51.8347 32.5618 52.7781C27.9876 57.2252 22.8754 60.8638 16.6868 62.6157C14.2652 63.2895 11.709 63.9633 9.28742 63.9633C2.69526 63.9633 -0.129957 60.5943 0.00457695 53.8561C0.00457695 51.8347 0.408179 49.8133 1.08085 47.7919C6.19314 33.1028 15.3415 21.7828 29.6021 15.0447C32.1582 13.8318 35.118 13.4275 37.9432 13.0232C39.9612 12.7537 41.441 13.697 41.8447 15.1794C42.5173 17.2009 41.8446 19.2223 40.0957 20.4351C40.4993 19.2223 40.7684 18.0094 41.172 16.7966C41.441 15.4489 40.9029 14.3708 39.5576 14.3708C37.6741 14.2361 35.6561 14.2361 33.9071 14.7751C27.7186 16.527 22.6063 20.0309 17.7631 24.3432C10.7673 31.0814 5.655 38.8976 2.56072 48.1961C1.88805 50.3523 1.48445 52.6433 1.48445 54.7995C1.34992 59.7857 3.77153 62.2114 8.74929 62.4809C12.1126 62.6157 15.2069 61.8071 18.1667 60.4595C21.2609 59.1119 24.0862 57.2252 27.0459 55.6081C27.4495 55.3385 27.8531 54.9342 28.3913 54.3952C27.1804 54.1257 26.2387 53.9909 25.297 53.7214C23.0099 53.0476 21.9336 51.1609 23.0099 49.0047C24.8934 45.3661 27.584 42.4014 31.6201 41.3233C33.0999 40.919 34.7143 40.919 36.0597 41.9971C36.4633 42.4014 37.5396 42.4014 38.0777 42.1318C39.154 41.7276 39.9612 41.458 40.9029 42.4014C41.8446 43.3447 41.441 44.288 40.7684 45.2314C39.5576 46.8485 38.2122 48.4657 36.5978 50.6219C37.8086 50.6219 38.7504 50.8914 39.5576 50.6219C41.9792 49.5438 44.4008 48.1961 46.5533 46.8485C47.0915 46.4442 47.3605 45.2314 47.226 44.4228C46.9569 42.2666 47.6296 40.5147 49.244 39.3018C49.9167 38.8976 51.1275 38.7628 51.8002 39.1671C52.8764 39.5714 52.7419 40.6495 52.3383 41.5928C52.0692 42.4014 51.8002 43.0752 51.5311 43.8838C53.28 44.0185 53.8182 43.6142 53.9527 41.9971C53.9527 41.1885 54.2218 40.3799 54.4908 39.7061C55.5671 37.9542 56.7779 37.9542 57.7197 39.7061C58.2578 40.6495 58.7959 40.6495 59.6031 40.1104C61.2175 39.1671 62.6974 38.3585 62.5629 36.2023C62.5629 35.6633 63.5046 34.5852 64.1773 34.4504C65.5226 34.1809 65.9262 33.3723 66.4644 32.429C68.886 27.4428 71.3076 22.4566 73.7292 17.4704C76.4199 12.3494 79.6487 7.36322 83.9538 3.45512C85.1646 2.24226 86.6445 1.29892 88.1243 0.490349C88.797 -0.183461 90.0078 -0.048699 90.546 0.220825C90.9496 0.490349 91.0841 1.70321 90.9496 2.37702C90.546 3.72464 90.0078 5.20702 89.2006 6.41988C83.4157 15.1794 77.6307 23.939 71.5767 32.429C69.8277 34.8547 67.4061 36.7414 65.2536 38.7628C64.9845 39.0323 64.5809 39.4366 64.3118 39.8409C62.9665 42.8057 61.6211 45.7704 60.2758 48.6004C60.1413 48.8699 60.1413 49.1395 60.0067 49.6785C61.8902 47.7919 62.6974 45.3661 64.7154 43.749C64.85 43.8838 64.9845 43.8838 65.119 44.0185C65.119 44.4228 64.9845 44.8271 64.9845 45.2314C64.9845 45.6357 64.85 46.0399 64.85 46.579C65.2536 46.579 65.9262 46.8485 66.1953 46.579C68.6169 45.2314 71.0385 43.8838 73.4601 42.4014C74.8055 41.458 76.0163 40.7842 77.8998 41.458C79.1106 41.8623 80.5904 41.1885 81.9358 41.0537C82.4739 40.919 83.1466 40.7842 83.6847 40.919C81.6667 42.6709 79.5142 43.749 76.8235 43.0752C75.4781 42.8057 74.4019 43.0752 73.3256 43.8838C71.7112 45.0966 70.0968 46.1747 68.3478 47.118C67.2716 47.6571 65.9262 48.1961 64.7154 48.1961C63.101 48.3309 62.0247 49.0047 61.2175 50.3523C56.1053 57.36 52.6074 65.1762 49.6476 73.1271C48.8404 75.2833 48.1677 77.5743 47.3605 79.8652C47.3605 80 47.0915 80 46.9569 80ZM66.868 35.1242C67.0025 35.259 67.2716 35.3937 67.4061 35.3937C68.7514 33.7766 70.3659 32.2942 71.5767 30.5423C75.8818 24.478 80.0523 18.4137 84.2229 12.2147C86.1063 9.24989 87.8553 6.15036 89.4697 3.18559C89.7387 2.64654 89.4697 1.97273 89.6042 1.29892C88.797 1.43368 87.9898 1.43368 87.4517 1.83797C85.1646 4.12893 82.8775 6.28512 80.994 8.8456C76.6889 14.3708 73.4601 20.8394 70.5004 27.1733C69.2896 29.7337 68.0788 32.429 66.868 35.1242ZM27.315 52.6433C30.4093 52.6433 32.6963 50.7566 33.5035 48.1961C33.7726 47.118 34.1762 46.1747 34.5798 45.2314C35.5216 43.2099 35.2525 42.6709 33.0999 42.5361C32.4273 42.4014 31.6201 42.5361 30.9474 42.9404C27.9876 44.4228 25.9696 46.8485 24.4898 49.6785C23.9516 50.7566 24.2207 51.7 25.4315 52.239C25.9696 52.3738 26.7768 52.5085 27.315 52.6433ZM36.0597 47.7919C36.1942 47.9266 36.3288 47.9266 36.4633 48.0614C37.5396 46.9833 38.6158 45.9052 39.5576 44.6923C39.8266 44.4228 39.6921 43.8838 39.8266 43.4795C39.2885 43.4795 38.7504 43.3447 38.3468 43.6142C36.7324 44.4228 36.1942 46.0399 36.0597 47.7919ZM51.6656 40.2452C49.7822 39.9757 49.244 40.919 48.8404 41.8623C48.5713 42.4014 48.8404 43.0752 48.8404 43.749C49.1095 43.749 49.244 43.8838 49.5131 43.8838C50.1858 42.8057 50.8584 41.7276 51.6656 40.2452Z" fill="#DCAD8B"/>
</svg>
