<svg width="34" height="34" viewBox="0 0 34 34" fill="none" xmlns="http://www.w3.org/2000/svg">
<g clip-path="url(#clip0)">
<path d="M30.7819 8.35124C30.4976 8.35124 30.2389 8.16199 30.1508 7.89224C30.0643 7.62768 30.1566 7.32952 30.3777 7.16012C30.5981 6.99131 30.9063 6.97942 31.1401 7.12844C31.3657 7.27221 31.4849 7.54886 31.4339 7.81163C31.3742 8.11988 31.0966 8.35124 30.7819 8.35124Z" fill="white"/>
<path d="M33.8873 15.1319C33.9626 14.6569 34.0005 14.1735 34 13.6934C34 12.3447 33.7078 11.0552 33.1314 9.86025C32.9722 9.52988 32.5753 9.39135 32.2448 9.55066C31.9144 9.70997 31.7758 10.1069 31.9352 10.4373C32.4241 11.4507 32.6719 12.5462 32.6719 13.6941C32.6719 13.7435 32.6715 13.7929 32.6706 13.8424C32.2377 12.4482 31.4537 11.1161 30.3647 9.93708C29.1619 8.63485 27.5767 7.509 25.7465 6.65196C26.0302 6.2759 26.2195 5.82467 26.2786 5.33393C26.9135 5.6477 27.5068 5.98186 28.0507 6.33228C28.162 6.40394 28.2866 6.4382 28.4097 6.4382C28.6279 6.4382 28.8416 6.33082 28.9686 6.13379C29.1672 5.82547 29.0784 5.41455 28.7701 5.21586C27.9374 4.6793 27.0011 4.18012 25.9851 3.73102C25.5262 2.85824 24.6106 2.26178 23.5584 2.26178C22.0474 2.26178 20.8182 3.49169 20.8182 5.00343C20.8182 6.51517 22.0474 7.74514 23.5584 7.74514C23.9009 7.74514 24.2291 7.68192 24.5316 7.56651C28.4789 9.21119 31.0551 11.9618 31.6213 15.1318C31.3159 16.8459 30.4507 18.4039 29.046 19.771L29.0162 19.7411C28.8917 19.6165 28.7227 19.5464 28.5465 19.5464C28.3704 19.5464 28.2013 19.6165 28.0768 19.7411L25.7031 22.1166C25.6894 22.1225 25.6758 22.1289 25.6622 22.1358C23.4364 23.2815 21.1038 23.9225 18.537 24.0934L17.4696 23.0252C17.3451 22.9006 17.1761 22.8305 16.9999 22.8305C16.8238 22.8305 16.6548 22.9006 16.5302 23.0252L15.4628 24.0934C12.9363 23.9253 10.5164 23.2969 8.45206 22.272L5.92311 19.7412C5.7986 19.6166 5.6296 19.5465 5.45342 19.5465C5.27724 19.5465 5.10824 19.6166 4.98373 19.7412L4.93319 19.7918C3.55812 18.416 2.68003 16.8168 2.37868 15.1318C2.94499 11.9619 5.52115 9.21126 9.46841 7.56658C9.77095 7.68199 10.0991 7.74521 10.4417 7.74521C11.9526 7.74521 13.1818 6.5153 13.1818 5.00349C13.1818 3.49169 11.9526 2.26185 10.4417 2.26185C9.38952 2.26185 8.47391 2.85824 8.01497 3.73095C2.77067 6.04826 4.33423e-06 9.49063 4.33423e-06 13.6924C-0.00046051 14.1736 0.0374575 14.6572 0.112696 15.132C0.0364614 15.6105 -0.00046051 16.0785 4.33423e-06 16.5582C4.33423e-06 18.708 0.728083 20.8042 2.11106 22.6514C1.97001 22.9041 2.00687 23.2294 2.22156 23.4442L4.98379 26.2084C5.10831 26.333 5.27731 26.4031 5.45349 26.4031C5.62966 26.4031 5.79867 26.333 5.92324 26.2084L5.98706 26.1445C8.31168 27.6182 10.9772 28.5547 13.9194 28.9306L16.5303 31.5433C16.6548 31.668 16.8238 31.738 17 31.738C17.1762 31.738 17.3452 31.668 17.4697 31.5433L20.0806 28.9306C22.9827 28.5595 25.5658 27.6294 27.9605 26.092L28.0768 26.2084C28.2013 26.333 28.3704 26.4031 28.5465 26.4031C28.7227 26.4031 28.8917 26.333 29.0162 26.2084L31.7785 23.4442C31.9896 23.2329 32.0287 22.9147 31.8957 22.6639C33.2924 20.8288 34 18.7771 34 16.5592C34.0005 16.079 33.9636 15.6109 33.8873 15.1319ZM22.1464 5.00356C22.1464 4.22415 22.7798 3.59004 23.5584 3.59004C24.337 3.59004 24.9705 4.22415 24.9705 5.00356C24.9705 5.78297 24.337 6.41715 23.5584 6.41715C22.7798 6.41715 22.1464 5.78297 22.1464 5.00356ZM10.4416 3.59004C11.2202 3.59004 11.8537 4.22415 11.8537 5.00356C11.8537 5.78297 11.2202 6.41715 10.4416 6.41715C9.66298 6.41715 9.02953 5.78297 9.02953 5.00356C9.02953 4.22415 9.66304 3.59004 10.4416 3.59004ZM7.72133 5.33426C7.78056 5.82487 7.96975 6.27597 8.25344 6.65203C6.42322 7.50907 4.8381 8.63485 3.63528 9.93715C2.54635 11.1162 1.76236 12.4482 1.32939 13.8424C1.32846 13.7926 1.328 13.7428 1.32806 13.693C1.32813 9.49369 4.60986 6.87389 7.72133 5.33426ZM1.32906 16.4288C1.80831 17.987 2.7133 19.45 3.99434 20.7313L3.04599 21.6803C1.91988 20.1083 1.32813 18.3502 1.32813 16.5575C1.32806 16.5146 1.3284 16.4717 1.32906 16.4288ZM3.62997 22.9748L5.45342 21.1501L7.2768 22.9748L5.45342 24.7996L3.62997 22.9748ZM8.4085 23.7212C10.1823 24.5249 12.1692 25.0665 14.2435 25.3138L12.7434 26.815C12.5952 26.9632 12.5318 27.1641 12.553 27.3574C10.5126 26.9351 8.63607 26.2059 6.95088 25.1798L8.4085 23.7212ZM17 30.1345L14.1518 27.2844L17 24.4342L19.8482 27.2844L17 30.1345ZM21.4473 27.354C21.4675 27.1617 21.4039 26.9624 21.2566 26.815L19.7561 25.3132C21.7979 25.0669 23.7068 24.5255 25.5431 23.6726L26.9981 25.1287C25.274 26.1972 23.4421 26.9321 21.4473 27.354ZM28.5466 24.7995L26.7232 22.9748L28.5466 21.15L30.37 22.9748L28.5466 24.7995ZM30.9644 21.6907L29.9851 20.7107C31.293 19.4351 32.1926 18.0032 32.6711 16.4367C32.6717 16.4772 32.672 16.5179 32.672 16.5585C32.6719 18.4108 32.0979 20.1344 30.9644 21.6907Z" fill="white"/>
</g>
<defs>
<clipPath id="clip0">
<rect width="34" height="34" fill="white"/>
</clipPath>
</defs>
</svg>
