<svg width="34" height="34" viewBox="0 0 34 34" fill="none" xmlns="http://www.w3.org/2000/svg">
<path d="M29.1363 23.3407C28.7808 23.2521 28.4201 23.4689 28.3315 23.8248C27.0351 29.0338 22.3752 32.6719 16.9996 32.6719C10.5609 32.6719 5.32269 27.4336 5.32269 20.9949C5.32269 14.5562 10.5609 9.31799 16.9996 9.31799C22.2969 9.31799 26.9399 12.8903 28.2904 18.005C28.3028 18.0518 28.3149 18.0988 28.3267 18.1458C28.416 18.5014 28.7765 18.7175 29.1324 18.6282C29.4881 18.5389 29.7041 18.1782 29.6149 17.8224C29.6018 17.7703 29.5884 17.7183 29.5746 17.6661C28.3015 12.8443 24.4019 9.25331 19.657 8.26353L22.8282 5.09236C23.0875 4.83305 23.0875 4.41256 22.8282 4.15318L18.8694 0.194504C18.7448 0.0699922 18.5759 0 18.3998 0H15.5995C15.4233 0 15.2545 0.0699922 15.1299 0.194504L11.1712 4.15325C11.0466 4.27782 10.9766 4.4467 10.9766 4.6228C10.9766 4.79891 11.0466 4.96778 11.1712 5.09236L14.3418 8.26293C8.44112 9.49311 3.99463 14.7345 3.99463 20.9949C3.99456 28.1659 9.82862 34 16.9996 34C19.9613 34 22.7513 33.0301 25.0681 31.1952C27.3152 29.4154 28.9319 26.9119 29.6203 24.1456C29.7089 23.7896 29.4922 23.4293 29.1363 23.3407ZM16.9996 7.48206L16.1354 4.34609H17.8637L16.9996 7.48206ZM18.3076 7.7346L19.2414 4.34616H21.1426L21.4194 4.62287L18.3076 7.7346ZM15.8746 1.32812H18.1247L19.8146 3.01796H14.1847L15.8746 1.32812ZM12.8565 4.34609H14.7578L15.6916 7.73447L12.5798 4.6228L12.8565 4.34609Z" fill="white"/>
<path d="M29.3414 20.3309H29.3407C28.974 20.3309 28.677 20.6282 28.677 20.9949C28.677 21.3616 28.9746 21.659 29.3414 21.659C29.7082 21.659 30.0055 21.3616 30.0055 20.9949C30.0055 20.6282 29.7082 20.3309 29.3414 20.3309Z" fill="white"/>
<path d="M16.9995 10.8276C11.3933 10.8276 6.83228 15.3887 6.83228 20.9949C6.83228 26.6012 11.3933 31.1622 16.9995 31.1622C22.6058 31.1622 27.1668 26.6012 27.1668 20.9949C27.1668 15.3887 22.6058 10.8276 16.9995 10.8276ZM16.9995 29.8341C12.1256 29.8341 8.1604 25.8689 8.1604 20.995C8.1604 16.121 12.1257 12.1558 16.9995 12.1558C21.8734 12.1558 25.8387 16.121 25.8387 20.995C25.8387 25.8689 21.8735 29.8341 16.9995 29.8341Z" fill="white"/>
</svg>
