<svg width="34" height="34" viewBox="0 0 34 34" fill="none" xmlns="http://www.w3.org/2000/svg">
<g clip-path="url(#clip0)">
<path d="M11.2197 17.4167C13.1397 16.359 14.4434 14.3158 14.4434 11.9739C14.4434 9.33604 12.7908 7.0769 10.4665 6.17743C11.0616 5.59591 11.4316 4.78482 11.4316 3.889C11.4316 2.12412 9.9958 0.688354 8.23099 0.688354C6.46618 0.688354 5.03034 2.12412 5.03034 3.889C5.03034 4.78482 5.40029 5.59591 5.99549 6.17743C3.6712 7.0769 2.01862 9.33604 2.01862 11.9739C2.01862 14.3158 3.32231 16.3591 5.24231 17.4168C2.17693 18.6146 0 21.5987 0 25.0814C0 29.62 3.69245 33.3124 8.23099 33.3124C12.7695 33.3124 16.4619 29.62 16.4619 25.0814C16.4619 21.5987 14.285 18.6146 11.2197 17.4167ZM6.35847 3.889C6.35847 2.85652 7.19844 2.01648 8.23099 2.01648C9.26347 2.01648 10.1034 2.85652 10.1034 3.889C10.1034 4.92149 9.26347 5.76153 8.23099 5.76153C7.19844 5.76146 6.35847 4.92149 6.35847 3.889ZM3.34668 11.9739C3.34668 9.50591 5.18666 7.4596 7.56693 7.13461V11.2558C7.56693 11.6226 7.86429 11.9199 8.23099 11.9199C8.59768 11.9199 8.89505 11.6226 8.89505 11.2558V7.13461C11.2753 7.4596 13.1152 9.50591 13.1152 11.9739C13.1152 14.6657 10.9242 16.8556 8.23099 16.8556C5.53782 16.8556 3.34668 14.6656 3.34668 11.9739ZM8.23099 31.9842C4.42478 31.9842 1.32813 28.8876 1.32813 25.0814C1.32813 21.2779 4.42478 18.1837 8.23099 18.1837C12.0372 18.1837 15.1338 21.2779 15.1338 25.0814C15.1338 28.8876 12.0373 31.9842 8.23099 31.9842Z" fill="white"/>
<path d="M8.23116 14.9334C7.9577 14.9334 7.70622 14.7594 7.6096 14.5036C7.51039 14.2409 7.5924 13.934 7.80988 13.7562C8.02477 13.5806 8.33416 13.558 8.57229 13.7003C8.80983 13.8422 8.93686 14.1279 8.88194 14.3995C8.81992 14.7061 8.54447 14.9334 8.23116 14.9334Z" fill="white"/>
<path d="M28.7577 17.4164C30.6778 16.3588 31.9814 14.3155 31.9814 11.9735C31.9814 9.33561 30.3288 7.07653 28.0045 6.17706C28.5996 5.59554 28.9697 4.78446 28.9697 3.88864C28.9697 2.12376 27.5338 0.687988 25.769 0.687988C24.0042 0.687988 22.5684 2.12382 22.5684 3.88864C22.5684 4.78446 22.9384 5.59554 23.5335 6.17706C21.2093 7.07653 19.5566 9.33568 19.5566 11.9735C19.5566 14.3155 20.8603 16.3587 22.7803 17.4163C19.715 18.6142 17.5381 21.5983 17.5381 25.081C17.5381 29.6196 21.2305 33.312 25.769 33.312C30.3075 33.312 34 29.6197 34 25.0811C34 21.5984 31.8231 18.6143 28.7577 17.4164ZM30.6533 11.9736C30.6533 14.4403 28.8133 16.4855 26.4331 16.8103V7.13431C28.8133 7.45923 30.6533 9.50561 30.6533 11.9736ZM23.8966 3.8887C23.8966 2.85622 24.7365 2.01618 25.769 2.01618C26.8016 2.01618 27.6415 2.85622 27.6415 3.8887C27.6415 4.92119 26.8016 5.76116 25.769 5.76116C24.7365 5.76116 23.8966 4.92119 23.8966 3.8887ZM20.8848 11.9736C20.8848 9.50561 22.7247 7.4593 25.1049 7.13431V16.8103C22.7247 16.4855 20.8848 14.4403 20.8848 11.9736ZM25.769 31.9839C21.9628 31.9839 18.8662 28.8873 18.8662 25.0811C18.8662 21.2776 21.9628 18.1834 25.769 18.1834C29.5752 18.1834 32.6719 21.2776 32.6719 25.0811C32.6719 28.8873 29.5752 31.9839 25.769 31.9839Z" fill="white"/>
<path d="M25.769 29.3823C25.5928 29.3823 25.424 29.3123 25.2994 29.1878L21.6623 25.5506C21.4029 25.2913 21.4029 24.8709 21.6623 24.6115L25.2994 20.9744C25.424 20.8499 25.5928 20.7799 25.769 20.7799C25.9451 20.7799 26.1139 20.8499 26.2385 20.9744L29.8756 24.6115C30.135 24.8708 30.135 25.2913 29.8756 25.5507L26.2385 29.1878C26.1139 29.3124 25.9451 29.3823 25.769 29.3823ZM23.0709 25.0811L25.769 27.7791L28.467 25.0811L25.769 22.3831L23.0709 25.0811Z" fill="white"/>
<path d="M8.23087 29.3822C8.05476 29.3822 7.88589 29.3123 7.76131 29.1877L4.12417 25.5506C3.86486 25.2913 3.86486 24.8708 4.12417 24.6114L7.76131 20.9743C7.88589 20.8498 8.05476 20.7798 8.23087 20.7798C8.40698 20.7798 8.57585 20.8498 8.70043 20.9743L12.3376 24.6114C12.5969 24.8707 12.5969 25.2912 12.3376 25.5505L8.70043 29.1877C8.57592 29.3123 8.40705 29.3822 8.23087 29.3822ZM5.53285 25.081L8.23087 27.7791L10.9289 25.081L8.23087 22.383L5.53285 25.081Z" fill="white"/>
</g>
<defs>
<clipPath id="clip0">
<rect width="34" height="34" fill="white"/>
</clipPath>
</defs>
</svg>
