<svg width="34" height="34" viewBox="0 0 34 34" fill="none" xmlns="http://www.w3.org/2000/svg">
<g clip-path="url(#clip0)">
<path d="M30.4426 19.6237C30.1617 19.6237 29.906 19.4397 29.8149 19.1746C29.7237 18.9094 29.8145 18.6032 30.0384 18.433C30.2541 18.2691 30.5512 18.2523 30.7839 18.3907C31.0232 18.5329 31.1498 18.822 31.0926 19.0944C31.0287 19.3984 30.754 19.6237 30.4426 19.6237Z" fill="white"/>
<path d="M31.5192 11.9608C31.3023 11.4636 31.0064 11.2673 30.5162 10.9422C29.8713 10.5144 29.081 10.2033 28.2443 9.87401C28.1917 9.85336 28.139 9.83257 28.0861 9.81172C28.0173 9.05502 27.8717 8.30862 27.6508 7.58253C27.5657 7.30296 27.3078 7.11184 27.0155 7.11184H23.9935C23.2647 6.06136 22.9086 4.70263 22.9086 2.98489C22.9086 2.9665 22.9079 2.9483 22.9064 2.93024C22.8582 1.17512 20.4942 0 16.9933 0C13.4561 0 11.0796 1.1995 11.0796 2.98489C11.0796 4.69579 10.6973 6.05207 9.91381 7.11184H6.98602C6.69377 7.11184 6.43585 7.30296 6.35078 7.58253C6.1341 8.29441 5.98993 9.02581 5.9196 9.76736C5.84078 9.8003 5.76235 9.83304 5.68453 9.86545C4.86959 10.2049 4.09981 10.5255 3.47187 10.9422C2.98166 11.2673 2.68582 11.4636 2.46887 11.9608C2.43261 12.0439 2.35724 12.2168 2.43135 13.8548C2.47179 14.7484 2.57233 16.161 2.82168 17.8152C3.25665 20.7014 4.23242 24.8401 6.41048 28.1663C8.94534 32.0372 12.5062 34 16.994 34C23.6491 34 28.2942 29.898 30.4271 22.1376C30.5243 21.784 30.3164 21.4185 29.9628 21.3213C29.6091 21.2243 29.2437 21.4319 29.1465 21.7856C27.1611 29.0092 23.0725 32.6719 16.994 32.6719C13.7425 32.6719 11.022 31.5124 8.90802 29.2257C6.18828 26.2837 4.92544 21.9667 4.34498 18.863C3.74706 15.666 3.71405 13.0144 3.73158 12.4067C3.78272 12.3356 3.88239 12.2636 4.20612 12.0488C4.65383 11.7518 5.24199 11.4911 5.87651 11.2245C5.94617 13.2017 6.53572 15.1121 7.59317 16.7801C7.62193 17.982 8.50042 18.9771 9.64964 19.1864C11.098 20.4611 12.8492 21.3367 14.729 21.7268C15.2676 22.385 16.0859 22.8058 17.0008 22.8058C17.9156 22.8058 18.734 22.385 19.2726 21.7268C21.1519 21.3369 22.9044 20.4603 24.352 19.1864C25.5012 18.9771 26.3798 17.9819 26.4085 16.78C27.4604 15.1208 28.0495 13.2204 28.124 11.2544C28.7554 11.5059 29.339 11.7548 29.7822 12.0488C30.1103 12.2665 30.2083 12.3376 30.2588 12.4097C30.2753 12.7863 30.2995 14.1332 30.1536 15.9223C30.1238 16.2879 30.3959 16.6083 30.7614 16.6382C30.7798 16.6396 30.798 16.6404 30.8161 16.6404C31.1584 16.6404 31.4489 16.3774 31.4772 16.0303C31.5721 14.8679 31.596 13.9075 31.5995 13.3066C31.6059 12.1596 31.5638 12.0631 31.5192 11.9608ZM13.4234 1.9461C14.2813 1.5476 15.5492 1.32812 16.9933 1.32812C18.4374 1.32812 19.7053 1.5476 20.5632 1.9461C21.2087 2.24599 21.5789 2.62464 21.5789 2.98496C21.5789 3.34535 21.2087 3.724 20.5632 4.02389C19.7053 4.42239 18.4374 4.64186 16.9933 4.64186C15.5492 4.64186 14.2813 4.42239 13.4234 4.02389C12.7779 3.724 12.4077 3.34535 12.4077 2.98496C12.4077 2.62457 12.778 2.24593 13.4234 1.9461ZM12.2485 4.87993C13.2821 5.5667 14.9426 5.96992 16.9933 5.96992C19.0388 5.96992 20.6961 5.56876 21.7302 4.88518C21.9881 6.40502 22.5809 7.6403 23.5223 8.63049C23.7613 9.33572 23.882 10.0724 23.882 10.8278C23.882 12.1086 23.5272 13.3556 22.8552 14.4404C22.1938 14.7453 21.6868 15.3298 21.4867 16.0415C20.6855 16.7317 19.7334 17.2302 18.7172 17.4924C18.2342 17.143 17.6411 16.9368 17.0008 16.9368C16.3605 16.9368 15.7675 17.143 15.2845 17.4924C14.2679 17.23 13.3163 16.7319 12.5149 16.0414C12.3149 15.3298 11.8078 14.7452 11.1464 14.4404C10.4744 13.3555 10.1196 12.1084 10.1196 10.8277C10.1196 9.99773 10.2654 9.19049 10.5536 8.42237C10.5549 8.42098 10.5562 8.41958 10.5575 8.41819C11.4349 7.4535 11.9946 6.28588 12.2485 4.87993ZM7.49091 8.44003H9.14535C8.91008 9.21035 8.79134 10.0099 8.79134 10.8278C8.79134 12.0251 9.05126 13.1979 9.54957 14.2726C9.00484 14.3951 8.52665 14.6953 8.17928 15.1089C7.53434 13.7821 7.19759 12.3228 7.19759 10.8278C7.19759 10.019 7.29614 9.21798 7.49091 8.44003ZM8.92057 16.7194C8.92057 16.0689 9.44976 15.5397 10.1002 15.5397C10.7507 15.5397 11.2799 16.0689 11.2799 16.7194C11.2799 17.3698 10.7507 17.899 10.1002 17.899C9.44969 17.899 8.92057 17.3698 8.92057 16.7194ZM11.3914 18.8685C11.8586 18.5867 12.2271 18.1569 12.4311 17.6445C13.0289 18.0459 13.6769 18.3676 14.3563 18.5997C14.1704 18.9847 14.0662 19.4161 14.0662 19.8713C14.0662 19.9789 14.072 20.085 14.0834 20.1895C13.1249 19.8909 12.2167 19.4451 11.3914 18.8685ZM17.0007 21.4778C16.115 21.4778 15.3943 20.7571 15.3943 19.8714C15.3943 18.9857 16.115 18.265 17.0007 18.265C17.8865 18.265 18.6072 18.9857 18.6072 19.8714C18.6072 20.7571 17.8865 21.4778 17.0007 21.4778ZM19.6453 18.5998C20.3245 18.3676 20.9727 18.0458 21.5704 17.6444C21.7744 18.1568 22.1428 18.5866 22.61 18.8684C21.7849 19.4449 20.8765 19.8907 19.9182 20.1894C19.9295 20.0849 19.9354 19.9789 19.9354 19.8713C19.9354 19.4161 19.8311 18.9847 19.6453 18.5998ZM23.9014 17.899C23.2508 17.899 22.7216 17.3698 22.7216 16.7194C22.7216 16.0689 23.2508 15.5397 23.9014 15.5397C24.5518 15.5397 25.081 16.0689 25.081 16.7194C25.081 17.3698 24.5518 17.899 23.9014 17.899ZM25.8222 15.1089C25.4748 14.6952 24.9967 14.395 24.4519 14.2725C24.9502 13.1979 25.2102 12.0251 25.2102 10.8277C25.2102 10.0098 25.0914 9.21021 24.8562 8.43997H26.5106C26.7054 9.21798 26.8039 10.0189 26.8039 10.8277C26.8039 12.3221 26.4671 13.782 25.8222 15.1089Z" fill="white"/>
</g>
<defs>
<clipPath id="clip0">
<rect width="34" height="34" fill="white"/>
</clipPath>
</defs>
</svg>
