<svg width="34" height="34" viewBox="0 0 34 34" fill="none" xmlns="http://www.w3.org/2000/svg">
<path d="M33.336 17.6754H31.5491C31.1823 17.6754 30.885 17.3781 30.885 17.0113C30.885 16.6445 31.1823 16.3472 31.5491 16.3472H33.336C33.7028 16.3472 34.0001 16.6445 34.0001 17.0113C34.0001 17.3781 33.7028 17.6754 33.336 17.6754Z" fill="white"/>
<path d="M27.4587 7.31363C27.2888 7.31363 27.1189 7.24882 26.9893 7.1192C26.7299 6.85988 26.7298 6.43946 26.9891 6.18008L28.2526 4.91617C28.5119 4.65678 28.9324 4.65672 29.1917 4.91603C29.4511 5.17535 29.4512 5.59577 29.1919 5.85515L27.9284 7.11906C27.7987 7.24875 27.6287 7.31363 27.4587 7.31363V7.31363Z" fill="white"/>
<path d="M28.7222 29.3011C28.5522 29.3011 28.3823 29.2362 28.2526 29.1065L26.9891 27.8426C26.7298 27.5833 26.7299 27.1628 26.9892 26.9035C27.2485 26.6442 27.6689 26.6443 27.9283 26.9037L29.1918 28.1676C29.4511 28.4269 29.451 28.8474 29.1917 29.1067C29.0621 29.2363 28.8921 29.3011 28.7222 29.3011Z" fill="white"/>
<path d="M2.45099 17.6754H0.664062C0.297301 17.6754 0 17.3781 0 17.0113C0 16.6446 0.297301 16.3473 0.664062 16.3473H2.45099C2.81775 16.3473 3.11505 16.6446 3.11505 17.0113C3.11505 17.3781 2.81775 17.6754 2.45099 17.6754Z" fill="white"/>
<path d="M5.2776 29.3011C5.10766 29.3011 4.9378 29.2363 4.8081 29.1067C4.54872 28.8474 4.54865 28.4269 4.80797 28.1676L6.07148 26.9037C6.3308 26.6443 6.75128 26.6442 7.0106 26.9035C7.26998 27.1628 7.27005 27.5833 7.01073 27.8426L5.74722 29.1065C5.61753 29.2362 5.44753 29.3011 5.2776 29.3011Z" fill="white"/>
<path d="M6.54112 7.31364C6.37112 7.31364 6.20119 7.24876 6.0715 7.11907L4.80792 5.85509C4.54867 5.59571 4.54874 5.17529 4.80805 4.91597C5.06737 4.65666 5.48779 4.65672 5.74717 4.91611L7.01068 6.18002C7.26993 6.4394 7.26987 6.85982 7.01055 7.11913C6.88099 7.24882 6.71106 7.31364 6.54112 7.31364V7.31364Z" fill="white"/>
<path d="M28.7968 23.7984V10.2243C28.7968 9.83244 28.458 9.64537 28.4577 9.64518C28.4577 9.64518 17.3371 3.35358 17.3371 3.35358L17.3369 3.35352C17.1421 3.24341 16.9047 3.24308 16.7082 3.35013C16.6968 3.35637 16.6853 3.36268 16.6741 3.36905H16.674L5.54251 9.64511C5.54217 9.64531 5.20337 9.83523 5.20337 10.2242V23.7983C5.20337 24.1591 5.5362 24.3739 5.53806 24.3749C5.53912 24.3755 16.674 30.6536 16.674 30.6536C16.674 30.6536 16.6741 30.6536 16.6741 30.6537C16.8794 30.7549 17.1208 30.7549 17.3262 30.6537L17.3263 30.6536L28.459 24.3768C28.46 24.3763 28.7968 24.2073 28.7968 23.7984V23.7984ZM17 24.6287L10.605 21.023V12.9997L17 9.39403L23.6462 13.1412C23.647 13.1417 23.6488 13.1427 23.6513 13.1443C23.8518 13.266 24.1032 13.2652 24.3047 13.145C24.3048 13.1449 24.3049 13.1449 24.3049 13.1449L27.4687 11.361V22.6617L24.6428 21.0684V18.4739C24.6428 18.1202 24.3759 17.8114 24.0229 17.7885C23.6361 17.7635 23.3147 18.0697 23.3147 18.4511V21.0683L17 24.6287ZM9.27686 12.909V21.1138L6.53143 22.6617V11.361L9.27686 12.909ZM23.9787 11.804L17.6641 8.2438V5.08433L26.7806 10.2243L23.9787 11.804ZM16.336 5.08433V8.2438L10.0213 11.8041L7.21946 10.2244L16.336 5.08433ZM10.0213 22.2187L16.336 25.779V28.9384L7.21946 23.7985L10.0213 22.2187ZM17.6641 28.9384V25.779L23.9787 22.2187L26.7806 23.7984L17.6641 28.9384Z" fill="white"/>
<path d="M23.9786 16.0816C23.7018 16.0816 23.4466 15.902 23.3541 15.6412C23.2627 15.3839 23.3399 15.0883 23.549 14.9114C23.7671 14.7269 24.0864 14.704 24.329 14.854C24.5621 14.9982 24.6824 15.2784 24.63 15.5471C24.5703 15.8536 24.2903 16.0816 23.9786 16.0816Z" fill="white"/>
</svg>
