<svg width="81" height="506" viewBox="0 0 81 506" fill="none" xmlns="http://www.w3.org/2000/svg">
<g opacity="0.1">
<mask id="path-1-outside-1" maskUnits="userSpaceOnUse" x="-0.640015" y="0.825623" width="81" height="505" fill="black">
<rect fill="white" x="-0.640015" y="0.825623" width="81" height="505"/>
<path d="M8.96 479.08C9.06667 481 9.28 482.413 9.60001 483.32C9.92001 484.173 10.5333 484.76 11.44 485.08C12.3467 485.4 13.8133 485.56 15.84 485.56H56.48C58.1867 485.56 59.44 485.427 60.24 485.16C60.9867 484.893 61.4933 484.44 61.76 483.8C62.0267 483.107 62.16 482.013 62.16 480.52V476.6C62.16 472.973 60.5333 469.853 57.28 467.24C54.0267 464.573 49.7067 462.84 44.32 462.04V460.2C46.1333 460.36 48.48 460.44 51.36 460.44C56.48 460.44 60.6933 460.253 64 459.88C63.84 463.507 63.76 469.613 63.76 478.2C63.76 489.827 63.84 498.52 64 504.28H62.4C62.2933 502.52 62.08 501.24 61.76 500.44C61.44 499.587 60.8267 499.027 59.92 498.76C59.0133 498.44 57.5467 498.28 55.52 498.28H15.84C13.8133 498.28 12.3467 498.44 11.44 498.76C10.5333 499.027 9.92001 499.587 9.60001 500.44C9.28 501.24 9.06667 502.52 8.96001 504.28H7.36001C7.52001 501.56 7.6 497.347 7.6 491.64C7.6 486.2 7.52 482.013 7.36001 479.08H8.96ZM55.28 413.934C57.7333 413.934 59.52 413.56 60.64 412.814C61.76 412.014 62.32 410.68 62.32 408.814H64C63.84 410.467 63.76 412.12 63.76 413.774C63.76 418.414 64.1333 422.307 64.88 425.454H57.68C62.64 427.907 65.12 432.2 65.12 438.334C65.12 442.334 64.08 445.24 62 447.054C60.9867 447.907 59.68 448.547 58.08 448.974C56.4267 449.347 54.2667 449.534 51.6 449.534H31.36C28.9067 449.534 27.12 449.934 26 450.734C24.88 451.48 24.32 452.787 24.32 454.654H22.64C22.8 453 22.88 451.347 22.88 449.694C22.88 445.054 22.5067 441.16 21.76 438.014H54.88C57.12 438.014 58.8 437.694 59.92 437.054C61.04 436.36 61.6 435.08 61.6 433.214C61.6 431.08 60.72 429.267 58.96 427.774C57.1467 426.227 54.9333 425.454 52.32 425.454H31.36C28.9067 425.454 27.12 425.854 26 426.654C24.88 427.4 24.32 428.707 24.32 430.574H22.64C22.8 428.867 22.88 427.214 22.88 425.614C22.88 420.974 22.5067 417.08 21.76 413.934H55.28ZM21.52 373.098C21.52 369.045 22.56 366.111 24.64 364.298C25.6533 363.391 26.96 362.751 28.56 362.378C30.16 362.005 32.32 361.818 35.04 361.818H56.56C58.7467 361.818 60.2667 361.445 61.12 360.698C61.92 359.898 62.32 358.565 62.32 356.698H64C63.7867 362.031 63.68 365.551 63.68 367.258C63.68 368.858 63.7867 372.325 64 377.658H62.32C62.32 376.058 61.92 374.938 61.12 374.298C60.2667 373.658 58.7467 373.338 56.56 373.338H31.68C29.4933 373.338 27.84 373.711 26.72 374.458C25.6 375.151 25.04 376.431 25.04 378.298C25.04 380.485 25.9467 382.351 27.76 383.898C29.52 385.445 31.7067 386.218 34.32 386.218H56.56C58.7467 386.218 60.2667 385.898 61.12 385.258C61.92 384.618 62.32 383.498 62.32 381.898H64C63.7867 386.805 63.68 390.111 63.68 391.818C63.68 393.418 63.7867 397.098 64 402.858H62.32C62.32 400.938 61.92 399.605 61.12 398.858C60.2667 398.111 58.7467 397.738 56.56 397.738L31.36 397.738C28.9067 397.738 27.12 398.111 26 398.858C24.88 399.605 24.32 400.938 24.32 402.858H22.64C22.8 401.151 22.88 399.498 22.88 397.898C22.88 393.151 22.5067 389.258 21.76 386.218H28.96C24 383.818 21.52 379.445 21.52 373.098ZM64.56 340.758C64.56 344.171 63.68 346.731 61.92 348.438C60.16 350.091 57.84 350.917 54.96 350.917C52.56 350.917 50.5867 350.304 49.04 349.077C47.44 347.797 46.2133 346.277 45.36 344.517C44.5067 342.704 43.6 340.411 42.64 337.637C41.6267 334.704 40.72 332.571 39.92 331.237C39.0667 329.851 37.92 329.158 36.48 329.158H30.24C28 329.158 26.2667 329.691 25.04 330.758C23.76 331.771 23.12 333.371 23.12 335.557C23.12 338.117 23.76 340.064 25.04 341.397C25.5733 339.904 26.3733 338.757 27.44 337.957C28.5067 337.104 29.76 336.677 31.2 336.677C33.0133 336.677 34.4533 337.291 35.52 338.517C36.5867 339.744 37.12 341.237 37.12 342.997C37.12 344.864 36.5333 346.304 35.36 347.318C34.1867 348.331 32.72 348.837 30.96 348.837C29.4667 348.837 28.2133 348.491 27.2 347.797C26.1333 347.051 25.1467 345.931 24.24 344.438C23.3867 342.997 22.72 341.238 22.24 339.158C21.76 337.024 21.52 334.704 21.52 332.198C21.52 329.584 21.7867 327.317 22.32 325.397C22.8533 323.477 23.76 321.878 25.04 320.598C26.2133 319.424 27.6533 318.651 29.36 318.277C31.0667 317.851 33.3867 317.637 36.32 317.637H58.08C59.36 317.637 60.2667 317.531 60.8 317.318C61.3333 317.051 61.6 316.571 61.6 315.878C61.6 315.078 61.1467 314.117 60.24 312.997L61.6 312.197C63.5733 314.597 64.56 317.531 64.56 320.997C64.56 323.931 63.9733 325.984 62.8 327.158C61.6267 328.331 60.0533 328.944 58.08 328.997C62.4 331.664 64.56 335.584 64.56 340.758ZM59.44 334.598C59.44 332.518 58.3467 330.704 56.16 329.158H39.76C40.8267 329.798 42 331.157 43.28 333.237C44.6133 335.317 45.9467 336.891 47.28 337.957C48.6133 339.024 50.5333 339.557 53.04 339.557C55.2267 339.557 56.8533 339.104 57.92 338.197C58.9333 337.291 59.44 336.091 59.44 334.598ZM77.44 290.59C77.2267 288.35 76.56 286.51 75.44 285.07C74.3733 283.577 72.56 282.457 70 281.71C67.4933 280.91 64.0533 280.51 59.68 280.51H15.84C13.8133 280.51 12.3467 280.67 11.44 280.99C10.5333 281.257 9.92 281.817 9.6 282.67C9.28 283.47 9.06666 284.75 8.96 286.51H7.36C7.52 283.843 7.59999 279.817 7.59999 274.43C7.59999 268.937 7.51999 264.723 7.36 261.79H8.96C9.06666 263.603 9.27999 264.91 9.6 265.71C9.92 266.51 10.5333 267.07 11.44 267.39C12.3467 267.657 13.8133 267.79 15.84 267.79H50C57.52 267.79 62.8533 268.243 66 269.15C69.8933 270.27 73.04 272.67 75.44 276.35C77.84 279.977 79.04 284.723 79.04 290.59H77.44ZM58.56 233.254C58.56 228.88 56.4267 225.36 52.16 222.694L52.64 221.254C56.1067 222.32 59.0667 224.24 61.52 227.014C63.92 229.734 65.12 233.147 65.12 237.254C65.12 242.907 63.3333 247.414 59.76 250.774C56.1333 254.08 50.8 255.734 43.76 255.734C36.56 255.734 31.0667 253.947 27.28 250.374C23.44 246.8 21.52 242.054 21.52 236.134C21.52 226.107 27.44 221.094 39.28 221.094V243.574C40.08 243.627 41.3333 243.654 43.04 243.654C46.56 243.654 49.4933 243.174 51.84 242.214C54.1867 241.2 55.8933 239.92 56.96 238.374C58.0267 236.774 58.56 235.067 58.56 233.254ZM23.2 236.614C23.2 238.534 24.4 240.134 26.8 241.414C29.1467 242.64 32.8 243.414 37.76 243.734V231.174C33.5467 231.067 30.08 231.494 27.36 232.454C24.5867 233.36 23.2 234.747 23.2 236.614ZM22.88 159.883C22.88 157.163 22.8 155.136 22.64 153.803H24.24C24.56 154.923 25.2267 155.936 26.24 156.842C27.2533 157.749 28.88 158.549 31.12 159.243L64.16 169.883C64.1067 170.469 64.08 171.349 64.08 172.523C64.08 173.643 64.1067 174.496 64.16 175.083L34.48 185.963L64.16 194.842C64.1067 195.376 64.08 196.229 64.08 197.402C64.08 198.576 64.1067 199.456 64.16 200.042L28.8 212.683C26.9333 213.323 25.7333 214.042 25.2 214.842C24.6133 215.642 24.32 216.469 24.32 217.323H22.64C22.96 213.856 23.12 210.069 23.12 205.963C23.12 203.296 22.96 199.829 22.64 195.562H24.32C24.32 197.323 24.4533 198.602 24.72 199.402C24.9867 200.149 25.6267 200.523 26.64 200.523C27.3333 200.523 28.0533 200.389 28.8 200.122L51.44 192.923L22.56 184.202L22.64 181.243L22.56 178.363L53.12 167.963L37.04 162.923C34.5333 162.176 32.5067 161.803 30.96 161.803C26.8 161.803 24.56 163.909 24.24 168.122H22.64C22.8 165.616 22.88 162.869 22.88 159.883ZM58.56 127.126C58.56 122.752 56.4267 119.232 52.16 116.566L52.64 115.126C56.1067 116.192 59.0667 118.112 61.52 120.886C63.92 123.606 65.12 127.019 65.12 131.126C65.12 136.779 63.3333 141.286 59.76 144.646C56.1333 147.952 50.8 149.606 43.76 149.606C36.56 149.606 31.0667 147.819 27.28 144.246C23.44 140.672 21.52 135.926 21.52 130.006C21.52 119.979 27.44 114.966 39.28 114.966V137.446C40.08 137.499 41.3333 137.526 43.04 137.526C46.56 137.526 49.4933 137.046 51.84 136.086C54.1867 135.072 55.8933 133.792 56.96 132.246C58.0267 130.646 58.56 128.939 58.56 127.126ZM23.2 130.486C23.2 132.406 24.4 134.006 26.8 135.286C29.1467 136.512 32.8 137.286 37.76 137.606V125.046C33.5467 124.939 30.08 125.366 27.36 126.326C24.5867 127.232 23.2 128.619 23.2 130.486ZM56.56 91.6131C58.7467 91.6131 60.2667 91.2398 61.12 90.4931C61.92 89.7464 62.32 88.4131 62.32 86.4931H64C63.7867 92.0398 63.68 95.6131 63.68 97.2131C63.68 99.0264 63.7867 102.706 64 108.253H62.32C62.32 106.386 61.92 105.08 61.12 104.333C60.2667 103.533 58.7467 103.133 56.56 103.133H10.96C8.50665 103.133 6.71999 103.533 5.59999 104.333C4.47999 105.08 3.91999 106.386 3.91999 108.253H2.23999C2.39999 106.546 2.47999 104.893 2.47999 103.293C2.47999 98.6531 2.10665 94.7598 1.35999 91.6131L56.56 91.6131ZM21.52 53.1694C21.52 50.7694 22.24 48.956 23.68 47.7294C25.12 46.5027 26.8533 45.8894 28.88 45.8894C30.8533 45.8894 32.48 46.476 33.76 47.6494C34.9867 48.7694 35.6 50.2627 35.6 52.1294C35.6 53.9427 35.1467 55.3827 34.24 56.4494C33.28 57.516 32.0267 58.0494 30.48 58.0494C27.92 58.0494 25.84 56.876 24.24 54.5294C24.1867 54.7427 24.16 55.0627 24.16 55.4894C24.16 56.0227 24.2133 56.4494 24.32 56.7694C24.64 58.796 25.8667 60.5294 28 61.9694C30.1333 63.356 32.32 64.0494 34.56 64.0494H55.76C58.2133 64.0494 59.92 63.4627 60.88 62.2894C61.84 61.0627 62.32 59.1427 62.32 56.5294H64C64 57.276 63.9733 57.8894 63.92 58.3694C63.76 63.8094 63.68 67.436 63.68 69.2494C63.68 70.6894 63.76 73.9694 63.92 79.0894C63.9733 79.516 64 80.0494 64 80.6894H62.32C62.32 78.7694 61.92 77.436 61.12 76.6894C60.2667 75.9427 58.7467 75.5694 56.56 75.5694H31.36C28.9067 75.5694 27.12 75.9427 26 76.6894C24.88 77.436 24.32 78.7694 24.32 80.6894H22.64C22.8 78.9827 22.88 77.3294 22.88 75.7294C22.88 70.9827 22.5067 67.0894 21.76 64.0494H29.2C26.9067 63.036 25.0667 61.5694 23.68 59.6494C22.24 57.7294 21.52 55.5694 21.52 53.1694ZM22.88 7.98562C22.88 5.31895 22.8 3.26562 22.64 1.82562L24.24 1.82562C24.56 2.94562 25.2533 3.95896 26.32 4.86562C27.3333 5.71895 28.9333 6.54562 31.12 7.34562L71.36 21.6656C74.1333 22.7323 76.0267 23.9056 77.04 25.1856C78.3733 26.7323 79.04 29.0523 79.04 32.1456C79.04 34.3856 78.48 36.4123 77.36 38.2256C76.2933 39.9856 74.72 40.8656 72.64 40.8656C70.9867 40.8656 69.6533 40.279 68.64 39.1056C67.68 37.9323 67.2 36.3856 67.2 34.4656C67.2 32.6523 67.6267 31.2123 68.48 30.1456C69.3867 29.0256 70.64 28.4656 72.24 28.4656C73.36 28.4656 74.3733 28.8123 75.28 29.5056C76.24 30.199 76.96 31.1856 77.44 32.4656C77.4933 32.0923 77.52 31.479 77.52 30.6256C77.52 27.319 75.4133 24.8923 71.2 23.3456L67.36 22.0656L28.8 39.0256C26.9867 39.879 25.7867 40.7056 25.2 41.5056C24.6133 42.3056 24.32 43.1323 24.32 43.9856H22.64C22.96 40.4656 23.12 36.8123 23.12 33.0256C23.12 29.879 22.96 26.1723 22.64 21.9056L24.32 21.9056C24.32 23.6123 24.4533 24.8923 24.72 25.7456C24.9333 26.5456 25.5467 26.9456 26.56 26.9456C27.1467 26.9456 27.8933 26.759 28.8 26.3856L52.4 16.6256L37.04 11.1056C34.5333 10.2523 32.4 9.82562 30.64 9.82562C26.7467 9.82562 24.6133 11.799 24.24 15.7456H22.64C22.8 13.239 22.88 10.6523 22.88 7.98562Z"/>
</mask>
<path d="M8.96 479.08C9.06667 481 9.28 482.413 9.60001 483.32C9.92001 484.173 10.5333 484.76 11.44 485.08C12.3467 485.4 13.8133 485.56 15.84 485.56H56.48C58.1867 485.56 59.44 485.427 60.24 485.16C60.9867 484.893 61.4933 484.44 61.76 483.8C62.0267 483.107 62.16 482.013 62.16 480.52V476.6C62.16 472.973 60.5333 469.853 57.28 467.24C54.0267 464.573 49.7067 462.84 44.32 462.04V460.2C46.1333 460.36 48.48 460.44 51.36 460.44C56.48 460.44 60.6933 460.253 64 459.88C63.84 463.507 63.76 469.613 63.76 478.2C63.76 489.827 63.84 498.52 64 504.28H62.4C62.2933 502.52 62.08 501.24 61.76 500.44C61.44 499.587 60.8267 499.027 59.92 498.76C59.0133 498.44 57.5467 498.28 55.52 498.28H15.84C13.8133 498.28 12.3467 498.44 11.44 498.76C10.5333 499.027 9.92001 499.587 9.60001 500.44C9.28 501.24 9.06667 502.52 8.96001 504.28H7.36001C7.52001 501.56 7.6 497.347 7.6 491.64C7.6 486.2 7.52 482.013 7.36001 479.08H8.96ZM55.28 413.934C57.7333 413.934 59.52 413.56 60.64 412.814C61.76 412.014 62.32 410.68 62.32 408.814H64C63.84 410.467 63.76 412.12 63.76 413.774C63.76 418.414 64.1333 422.307 64.88 425.454H57.68C62.64 427.907 65.12 432.2 65.12 438.334C65.12 442.334 64.08 445.24 62 447.054C60.9867 447.907 59.68 448.547 58.08 448.974C56.4267 449.347 54.2667 449.534 51.6 449.534H31.36C28.9067 449.534 27.12 449.934 26 450.734C24.88 451.48 24.32 452.787 24.32 454.654H22.64C22.8 453 22.88 451.347 22.88 449.694C22.88 445.054 22.5067 441.16 21.76 438.014H54.88C57.12 438.014 58.8 437.694 59.92 437.054C61.04 436.36 61.6 435.08 61.6 433.214C61.6 431.08 60.72 429.267 58.96 427.774C57.1467 426.227 54.9333 425.454 52.32 425.454H31.36C28.9067 425.454 27.12 425.854 26 426.654C24.88 427.4 24.32 428.707 24.32 430.574H22.64C22.8 428.867 22.88 427.214 22.88 425.614C22.88 420.974 22.5067 417.08 21.76 413.934H55.28ZM21.52 373.098C21.52 369.045 22.56 366.111 24.64 364.298C25.6533 363.391 26.96 362.751 28.56 362.378C30.16 362.005 32.32 361.818 35.04 361.818H56.56C58.7467 361.818 60.2667 361.445 61.12 360.698C61.92 359.898 62.32 358.565 62.32 356.698H64C63.7867 362.031 63.68 365.551 63.68 367.258C63.68 368.858 63.7867 372.325 64 377.658H62.32C62.32 376.058 61.92 374.938 61.12 374.298C60.2667 373.658 58.7467 373.338 56.56 373.338H31.68C29.4933 373.338 27.84 373.711 26.72 374.458C25.6 375.151 25.04 376.431 25.04 378.298C25.04 380.485 25.9467 382.351 27.76 383.898C29.52 385.445 31.7067 386.218 34.32 386.218H56.56C58.7467 386.218 60.2667 385.898 61.12 385.258C61.92 384.618 62.32 383.498 62.32 381.898H64C63.7867 386.805 63.68 390.111 63.68 391.818C63.68 393.418 63.7867 397.098 64 402.858H62.32C62.32 400.938 61.92 399.605 61.12 398.858C60.2667 398.111 58.7467 397.738 56.56 397.738L31.36 397.738C28.9067 397.738 27.12 398.111 26 398.858C24.88 399.605 24.32 400.938 24.32 402.858H22.64C22.8 401.151 22.88 399.498 22.88 397.898C22.88 393.151 22.5067 389.258 21.76 386.218H28.96C24 383.818 21.52 379.445 21.52 373.098ZM64.56 340.758C64.56 344.171 63.68 346.731 61.92 348.438C60.16 350.091 57.84 350.917 54.96 350.917C52.56 350.917 50.5867 350.304 49.04 349.077C47.44 347.797 46.2133 346.277 45.36 344.517C44.5067 342.704 43.6 340.411 42.64 337.637C41.6267 334.704 40.72 332.571 39.92 331.237C39.0667 329.851 37.92 329.158 36.48 329.158H30.24C28 329.158 26.2667 329.691 25.04 330.758C23.76 331.771 23.12 333.371 23.12 335.557C23.12 338.117 23.76 340.064 25.04 341.397C25.5733 339.904 26.3733 338.757 27.44 337.957C28.5067 337.104 29.76 336.677 31.2 336.677C33.0133 336.677 34.4533 337.291 35.52 338.517C36.5867 339.744 37.12 341.237 37.12 342.997C37.12 344.864 36.5333 346.304 35.36 347.318C34.1867 348.331 32.72 348.837 30.96 348.837C29.4667 348.837 28.2133 348.491 27.2 347.797C26.1333 347.051 25.1467 345.931 24.24 344.438C23.3867 342.997 22.72 341.238 22.24 339.158C21.76 337.024 21.52 334.704 21.52 332.198C21.52 329.584 21.7867 327.317 22.32 325.397C22.8533 323.477 23.76 321.878 25.04 320.598C26.2133 319.424 27.6533 318.651 29.36 318.277C31.0667 317.851 33.3867 317.637 36.32 317.637H58.08C59.36 317.637 60.2667 317.531 60.8 317.318C61.3333 317.051 61.6 316.571 61.6 315.878C61.6 315.078 61.1467 314.117 60.24 312.997L61.6 312.197C63.5733 314.597 64.56 317.531 64.56 320.997C64.56 323.931 63.9733 325.984 62.8 327.158C61.6267 328.331 60.0533 328.944 58.08 328.997C62.4 331.664 64.56 335.584 64.56 340.758ZM59.44 334.598C59.44 332.518 58.3467 330.704 56.16 329.158H39.76C40.8267 329.798 42 331.157 43.28 333.237C44.6133 335.317 45.9467 336.891 47.28 337.957C48.6133 339.024 50.5333 339.557 53.04 339.557C55.2267 339.557 56.8533 339.104 57.92 338.197C58.9333 337.291 59.44 336.091 59.44 334.598ZM77.44 290.59C77.2267 288.35 76.56 286.51 75.44 285.07C74.3733 283.577 72.56 282.457 70 281.71C67.4933 280.91 64.0533 280.51 59.68 280.51H15.84C13.8133 280.51 12.3467 280.67 11.44 280.99C10.5333 281.257 9.92 281.817 9.6 282.67C9.28 283.47 9.06666 284.75 8.96 286.51H7.36C7.52 283.843 7.59999 279.817 7.59999 274.43C7.59999 268.937 7.51999 264.723 7.36 261.79H8.96C9.06666 263.603 9.27999 264.91 9.6 265.71C9.92 266.51 10.5333 267.07 11.44 267.39C12.3467 267.657 13.8133 267.79 15.84 267.79H50C57.52 267.79 62.8533 268.243 66 269.15C69.8933 270.27 73.04 272.67 75.44 276.35C77.84 279.977 79.04 284.723 79.04 290.59H77.44ZM58.56 233.254C58.56 228.88 56.4267 225.36 52.16 222.694L52.64 221.254C56.1067 222.32 59.0667 224.24 61.52 227.014C63.92 229.734 65.12 233.147 65.12 237.254C65.12 242.907 63.3333 247.414 59.76 250.774C56.1333 254.08 50.8 255.734 43.76 255.734C36.56 255.734 31.0667 253.947 27.28 250.374C23.44 246.8 21.52 242.054 21.52 236.134C21.52 226.107 27.44 221.094 39.28 221.094V243.574C40.08 243.627 41.3333 243.654 43.04 243.654C46.56 243.654 49.4933 243.174 51.84 242.214C54.1867 241.2 55.8933 239.92 56.96 238.374C58.0267 236.774 58.56 235.067 58.56 233.254ZM23.2 236.614C23.2 238.534 24.4 240.134 26.8 241.414C29.1467 242.64 32.8 243.414 37.76 243.734V231.174C33.5467 231.067 30.08 231.494 27.36 232.454C24.5867 233.36 23.2 234.747 23.2 236.614ZM22.88 159.883C22.88 157.163 22.8 155.136 22.64 153.803H24.24C24.56 154.923 25.2267 155.936 26.24 156.842C27.2533 157.749 28.88 158.549 31.12 159.243L64.16 169.883C64.1067 170.469 64.08 171.349 64.08 172.523C64.08 173.643 64.1067 174.496 64.16 175.083L34.48 185.963L64.16 194.842C64.1067 195.376 64.08 196.229 64.08 197.402C64.08 198.576 64.1067 199.456 64.16 200.042L28.8 212.683C26.9333 213.323 25.7333 214.042 25.2 214.842C24.6133 215.642 24.32 216.469 24.32 217.323H22.64C22.96 213.856 23.12 210.069 23.12 205.963C23.12 203.296 22.96 199.829 22.64 195.562H24.32C24.32 197.323 24.4533 198.602 24.72 199.402C24.9867 200.149 25.6267 200.523 26.64 200.523C27.3333 200.523 28.0533 200.389 28.8 200.122L51.44 192.923L22.56 184.202L22.64 181.243L22.56 178.363L53.12 167.963L37.04 162.923C34.5333 162.176 32.5067 161.803 30.96 161.803C26.8 161.803 24.56 163.909 24.24 168.122H22.64C22.8 165.616 22.88 162.869 22.88 159.883ZM58.56 127.126C58.56 122.752 56.4267 119.232 52.16 116.566L52.64 115.126C56.1067 116.192 59.0667 118.112 61.52 120.886C63.92 123.606 65.12 127.019 65.12 131.126C65.12 136.779 63.3333 141.286 59.76 144.646C56.1333 147.952 50.8 149.606 43.76 149.606C36.56 149.606 31.0667 147.819 27.28 144.246C23.44 140.672 21.52 135.926 21.52 130.006C21.52 119.979 27.44 114.966 39.28 114.966V137.446C40.08 137.499 41.3333 137.526 43.04 137.526C46.56 137.526 49.4933 137.046 51.84 136.086C54.1867 135.072 55.8933 133.792 56.96 132.246C58.0267 130.646 58.56 128.939 58.56 127.126ZM23.2 130.486C23.2 132.406 24.4 134.006 26.8 135.286C29.1467 136.512 32.8 137.286 37.76 137.606V125.046C33.5467 124.939 30.08 125.366 27.36 126.326C24.5867 127.232 23.2 128.619 23.2 130.486ZM56.56 91.6131C58.7467 91.6131 60.2667 91.2398 61.12 90.4931C61.92 89.7464 62.32 88.4131 62.32 86.4931H64C63.7867 92.0398 63.68 95.6131 63.68 97.2131C63.68 99.0264 63.7867 102.706 64 108.253H62.32C62.32 106.386 61.92 105.08 61.12 104.333C60.2667 103.533 58.7467 103.133 56.56 103.133H10.96C8.50665 103.133 6.71999 103.533 5.59999 104.333C4.47999 105.08 3.91999 106.386 3.91999 108.253H2.23999C2.39999 106.546 2.47999 104.893 2.47999 103.293C2.47999 98.6531 2.10665 94.7598 1.35999 91.6131L56.56 91.6131ZM21.52 53.1694C21.52 50.7694 22.24 48.956 23.68 47.7294C25.12 46.5027 26.8533 45.8894 28.88 45.8894C30.8533 45.8894 32.48 46.476 33.76 47.6494C34.9867 48.7694 35.6 50.2627 35.6 52.1294C35.6 53.9427 35.1467 55.3827 34.24 56.4494C33.28 57.516 32.0267 58.0494 30.48 58.0494C27.92 58.0494 25.84 56.876 24.24 54.5294C24.1867 54.7427 24.16 55.0627 24.16 55.4894C24.16 56.0227 24.2133 56.4494 24.32 56.7694C24.64 58.796 25.8667 60.5294 28 61.9694C30.1333 63.356 32.32 64.0494 34.56 64.0494H55.76C58.2133 64.0494 59.92 63.4627 60.88 62.2894C61.84 61.0627 62.32 59.1427 62.32 56.5294H64C64 57.276 63.9733 57.8894 63.92 58.3694C63.76 63.8094 63.68 67.436 63.68 69.2494C63.68 70.6894 63.76 73.9694 63.92 79.0894C63.9733 79.516 64 80.0494 64 80.6894H62.32C62.32 78.7694 61.92 77.436 61.12 76.6894C60.2667 75.9427 58.7467 75.5694 56.56 75.5694H31.36C28.9067 75.5694 27.12 75.9427 26 76.6894C24.88 77.436 24.32 78.7694 24.32 80.6894H22.64C22.8 78.9827 22.88 77.3294 22.88 75.7294C22.88 70.9827 22.5067 67.0894 21.76 64.0494H29.2C26.9067 63.036 25.0667 61.5694 23.68 59.6494C22.24 57.7294 21.52 55.5694 21.52 53.1694ZM22.88 7.98562C22.88 5.31895 22.8 3.26562 22.64 1.82562L24.24 1.82562C24.56 2.94562 25.2533 3.95896 26.32 4.86562C27.3333 5.71895 28.9333 6.54562 31.12 7.34562L71.36 21.6656C74.1333 22.7323 76.0267 23.9056 77.04 25.1856C78.3733 26.7323 79.04 29.0523 79.04 32.1456C79.04 34.3856 78.48 36.4123 77.36 38.2256C76.2933 39.9856 74.72 40.8656 72.64 40.8656C70.9867 40.8656 69.6533 40.279 68.64 39.1056C67.68 37.9323 67.2 36.3856 67.2 34.4656C67.2 32.6523 67.6267 31.2123 68.48 30.1456C69.3867 29.0256 70.64 28.4656 72.24 28.4656C73.36 28.4656 74.3733 28.8123 75.28 29.5056C76.24 30.199 76.96 31.1856 77.44 32.4656C77.4933 32.0923 77.52 31.479 77.52 30.6256C77.52 27.319 75.4133 24.8923 71.2 23.3456L67.36 22.0656L28.8 39.0256C26.9867 39.879 25.7867 40.7056 25.2 41.5056C24.6133 42.3056 24.32 43.1323 24.32 43.9856H22.64C22.96 40.4656 23.12 36.8123 23.12 33.0256C23.12 29.879 22.96 26.1723 22.64 21.9056L24.32 21.9056C24.32 23.6123 24.4533 24.8923 24.72 25.7456C24.9333 26.5456 25.5467 26.9456 26.56 26.9456C27.1467 26.9456 27.8933 26.759 28.8 26.3856L52.4 16.6256L37.04 11.1056C34.5333 10.2523 32.4 9.82562 30.64 9.82562C26.7467 9.82562 24.6133 11.799 24.24 15.7456H22.64C22.8 13.239 22.88 10.6523 22.88 7.98562Z" stroke="#555555" stroke-width="2" mask="url(#path-1-outside-1)"/>
</g>
</svg>
